<?xml version="1.0" encoding="UTF-8" standalone="no"?><!DOCTYPE svg PUBLIC "-//W3C//DTD SVG 1.1//EN" "http://www.w3.org/Graphics/SVG/1.1/DTD/svg11.dtd"><svg width="27px" height="48px" viewBox="479 855 27 48" version="1.1" xmlns="http://www.w3.org/2000/svg" xmlns:xlink="http://www.w3.org/1999/xlink">
    <!-- Generator: Sketch 3.8.3 (29802) - http://www.bohemiancoding.com/sketch -->
    <desc>Created with Sketch.</desc>
    <defs></defs>
    <g id="Group-190" stroke="none" stroke-width="1" fill="none" fill-rule="evenodd" transform="translate(479.000000, 855.376000)">
        <path d="M23.896966,12.957579 C22.725966,12.957579 21.777966,12.008579 21.777966,10.838579 L21.777966,2.609579 C21.777966,1.439579 22.725966,0.490579 23.896966,0.490579 C25.067966,0.490579 26.015966,1.439579 26.015966,2.609579 L26.015966,10.838579 C26.015966,12.008579 25.067966,12.957579 23.896966,12.957579" id="Fill-182" fill="#F16549"></path>
        <path d="M17.518166,14.667379 C16.786166,14.667379 16.073166,14.287379 15.681166,13.607379 L11.567166,6.483379 C10.982166,5.469379 11.329166,4.172379 12.343166,3.586379 C13.356166,3.002379 14.653166,3.349379 15.239166,4.362379 L19.352166,11.488379 C19.937166,12.501379 19.590166,13.798379 18.576166,14.382379 C18.243166,14.576379 17.878166,14.667379 17.518166,14.667379" id="Fill-184" fill="#F16549"></path>
        <path d="M12.844066,19.338479 C12.484066,19.338479 12.120066,19.247479 11.786066,19.054479 L4.660066,14.940479 C3.646066,14.356479 3.299066,13.059479 3.884066,12.045479 C4.470066,11.031479 5.767066,10.684479 6.780066,11.269479 L13.905066,15.383479 C14.919066,15.967479 15.267066,17.264479 14.682066,18.278479 C14.289066,18.958479 13.576066,19.338479 12.844066,19.338479" id="Fill-185" fill="#F16549"></path>
        <path d="M11.135466,25.719379 L2.907466,25.719379 C1.738466,25.719379 0.789466,24.771379 0.789466,23.600379 C0.789466,22.429379 1.738466,21.480379 2.907466,21.480379 L11.135466,21.480379 C12.306466,21.480379 13.255466,22.429379 13.255466,23.600379 C13.255466,24.771379 12.306466,25.719379 11.135466,25.719379" id="Fill-186" fill="#F16549"></path>
        <path d="M5.721966,36.214479 C4.989966,36.214479 4.276966,35.833479 3.883966,35.154479 C3.298966,34.140479 3.645966,32.843479 4.659966,32.258479 L11.785966,28.145479 C12.798966,27.559479 14.095966,27.907479 14.681966,28.921479 C15.266966,29.934479 14.919966,31.232479 13.905966,31.816479 L6.779966,35.930479 C6.444966,36.123479 6.081966,36.214479 5.721966,36.214479" id="Fill-187" fill="#F16549"></path>
        <path d="M13.400966,43.897179 C13.041966,43.897179 12.676966,43.804179 12.342966,43.612179 C11.328966,43.026179 10.981966,41.730179 11.566966,40.716179 L15.680966,33.591179 C16.265966,32.577179 17.561966,32.230179 18.575966,32.815179 C19.589966,33.401179 19.936966,34.697179 19.351966,35.711179 L15.238966,42.835179 C14.845966,43.516179 14.132966,43.897179 13.400966,43.897179" id="Fill-188" fill="#F16549"></path>
        <path d="M23.897366,46.707579 C22.726366,46.707579 21.778366,45.759579 21.778366,44.587579 L21.778366,36.361579 C21.778366,35.190579 22.726366,34.242579 23.897366,34.242579 C25.068366,34.242579 26.016366,35.190579 26.016366,36.361579 L26.016366,44.587579 C26.016366,45.759579 25.068366,46.707579 23.897366,46.707579" id="Fill-189" fill="#F16549"></path>
    </g>
</svg>
