<?xml version="1.0" encoding="UTF-8" standalone="no"?><!DOCTYPE svg PUBLIC "-//W3C//DTD SVG 1.1//EN" "http://www.w3.org/Graphics/SVG/1.1/DTD/svg11.dtd">
<svg width="26px" height="49px" viewBox="27 166 26 49" version="1.1" xmlns="http://www.w3.org/2000/svg" xmlns:xlink="http://www.w3.org/1999/xlink">
    <!-- Generator: Sketch 3.8.3 (29802) - http://www.bohemiancoding.com/sketch -->
    <desc>Created with Sketch.</desc>
    <defs></defs>
    <g id="Group-226" stroke="none" stroke-width="1" fill="none" fill-rule="evenodd" transform="translate(27.000000, 166.376000)">
        <path d="M23.107605,13.46582 C21.936605,13.46582 20.988605,12.51682 20.988605,11.34682 L20.988605,3.11882 C20.988605,1.94782 21.936605,0.99882 23.107605,0.99882 C24.278605,0.99882 25.226605,1.94782 25.226605,3.11882 L25.226605,11.34682 C25.226605,12.51682 24.278605,13.46582 23.107605,13.46582" id="Fill-212" fill="#FFFFFF"></path>
        <path d="M16.728897,15.175781 C15.996897,15.175781 15.283897,14.795781 14.891897,14.115781 L10.777897,6.991781 C10.192897,5.977781 10.539897,4.680781 11.553897,4.094781 C12.566897,3.510781 13.863897,3.857781 14.449897,4.870781 L18.562897,11.996781 C19.147897,13.009781 18.800897,14.306781 17.786897,14.890781 C17.453897,15.084781 17.088897,15.175781 16.728897,15.175781" id="Fill-214" fill="#FFFFFF"></path>
        <path d="M12.054794,19.846802 C11.694794,19.846802 11.330794,19.755802 10.996794,19.562802 L3.870794,15.448802 C2.856794,14.864802 2.509794,13.567802 3.094794,12.553802 C3.680794,11.539802 4.977794,11.192802 5.990794,11.777802 L13.115794,15.891802 C14.129794,16.475802 14.477794,17.772802 13.892794,18.786802 C13.499794,19.466802 12.786794,19.846802 12.054794,19.846802" id="Fill-216" fill="#FFFFFF"></path>
        <path d="M10.346206,26.227722 L2.118206,26.227722 C0.949206,26.227722 0.000206,25.279722 0.000206,24.108722 C0.000206,22.937722 0.949206,21.988722 2.118206,21.988722 L10.346206,21.988722 C11.517206,21.988722 12.466206,22.937722 12.466206,24.108722 C12.466206,25.279722 11.517206,26.227722 10.346206,26.227722" id="Fill-218" fill="#FFFFFF"></path>
        <path d="M4.932693,36.722778 C4.200693,36.722778 3.487693,36.341778 3.094693,35.662778 C2.509693,34.648778 2.856693,33.351778 3.870693,32.766778 L10.996693,28.653778 C12.009693,28.067778 13.306693,28.415778 13.892693,29.429778 C14.477693,30.442778 14.130693,31.740778 13.116693,32.324778 L5.990693,36.438778 C5.655693,36.631778 5.292693,36.722778 4.932693,36.722778" id="Fill-220" fill="#FFFFFF"></path>
        <path d="M12.611602,44.405517 C12.252602,44.405517 11.887602,44.312517 11.553602,44.120517 C10.539602,43.534517 10.192602,42.238517 10.777602,41.224517 L14.891602,34.099517 C15.476602,33.085517 16.772602,32.738517 17.786602,33.323517 C18.800602,33.909517 19.147602,35.205517 18.562602,36.219517 L14.449602,43.343517 C14.056602,44.024517 13.343602,44.405517 12.611602,44.405517" id="Fill-222" fill="#FFFFFF"></path>
        <path d="M23.108092,47.215881 C21.937092,47.215881 20.989092,46.267881 20.989092,45.095881 L20.989092,36.869881 C20.989092,35.698881 21.937092,34.750881 23.108092,34.750881 C24.279092,34.750881 25.227092,35.698881 25.227092,36.869881 L25.227092,45.095881 C25.227092,46.267881 24.279092,47.215881 23.108092,47.215881" id="Fill-224" fill="#FFFFFF"></path>
    </g>
</svg>
