<?xml version="1.0" encoding="UTF-8" standalone="no"?><!DOCTYPE svg PUBLIC "-//W3C//DTD SVG 1.1//EN" "http://www.w3.org/Graphics/SVG/1.1/DTD/svg11.dtd">
<svg width="83px" height="90px" viewBox="203 626 83 90" version="1.1" xmlns="http://www.w3.org/2000/svg" xmlns:xlink="http://www.w3.org/1999/xlink">
    <!-- Generator: Sketch 3.8.3 (29802) - http://www.bohemiancoding.com/sketch -->
    <desc>Created with Sketch.</desc>
    <defs></defs>
    <g id="Group-302" stroke="none" stroke-width="1" fill="none" fill-rule="evenodd" transform="translate(203.000000, 626.376000)">
        <path d="M15.179901,19.323913 C11.058901,23.976913 5.192901,29.424913 4.854901,44.800913 C4.809901,46.844913 5.275901,51.151913 6.063901,54.127913 L41.342901,45.243913" id="Fill-270" fill="#FDBA30"></path>
        <path d="M15.179901,19.323913 C11.916901,23.008913 7.559901,27.190913 5.718901,36.404913 C16.125901,39.247913 41.342901,45.243913 41.342901,45.243913" id="Fill-272" fill="#8CC63E"></path>
        <path d="M76.392101,54.687614 L41.343101,45.243614 L50.910101,79.923614 C63.221101,76.574614 72.938101,66.941614 76.392101,54.687614" id="Fill-273" fill="#FDBA30"></path>
        <path d="M75.681701,63.734514 C75.881701,63.734514 76.074701,63.599514 76.074701,63.342514 C76.074701,63.084514 75.881701,62.949514 75.681701,62.949514 C75.481701,62.949514 75.289701,63.084514 75.289701,63.342514 C75.289701,63.599514 75.481701,63.734514 75.681701,63.734514 M75.681701,64.949514 C75.916701,64.949514 76.124701,64.765514 76.124701,64.515514 C76.124701,64.264514 75.916701,64.080514 75.681701,64.080514 C75.446701,64.080514 75.239701,64.264514 75.239701,64.515514 C75.239701,64.765514 75.446701,64.949514 75.681701,64.949514 M75.168701,63.903514 C75.007701,63.758514 74.896701,63.588514 74.896701,63.349514 C74.896701,62.908514 75.239701,62.559514 75.681701,62.559514 C76.124701,62.559514 76.466701,62.908514 76.466701,63.349514 C76.466701,63.588514 76.354701,63.758514 76.192701,63.903514 C76.401701,64.041514 76.516701,64.261514 76.516701,64.518514 C76.516701,65.003514 76.134701,65.340514 75.681701,65.340514 C75.227701,65.340514 74.846701,65.003514 74.846701,64.518514 C74.846701,64.261514 74.961701,64.041514 75.168701,63.903514" id="Fill-274" fill="#807E82"></path>
        <path d="M69.982501,71.264514 C69.982501,70.956514 69.828501,70.814514 69.590501,70.814514 C69.409501,70.814514 69.197501,70.938514 69.197501,71.264514 C69.197501,71.571514 69.375501,71.714514 69.590501,71.714514 C69.805501,71.714514 69.982501,71.571514 69.982501,71.264514 M69.536501,73.183514 L69.097501,73.183514 L69.674501,72.026514 L69.667501,72.026514 C69.609501,72.048514 69.525501,72.059514 69.460501,72.059514 C69.112501,72.059514 68.805501,71.830514 68.805501,71.299514 C68.805501,70.673514 69.205501,70.423514 69.613501,70.423514 C69.994501,70.423514 70.375501,70.741514 70.375501,71.257514 C70.375501,71.418514 70.341501,71.576514 70.270501,71.714514" id="Fill-275" fill="#807E82"></path>
        <path d="M63.469901,77.911014 C63.469901,77.645014 63.315901,77.493014 63.084901,77.493014 C62.853901,77.493014 62.699901,77.645014 62.699901,77.911014 L62.699901,79.072014 C62.699901,79.337014 62.853901,79.491014 63.084901,79.491014 C63.315901,79.491014 63.469901,79.337014 63.469901,79.072014 M62.307901,77.888014 C62.307901,77.385014 62.680901,77.100014 63.084901,77.100014 C63.488901,77.100014 63.861901,77.385014 63.861901,77.888014 L63.861901,79.094014 C63.861901,79.599014 63.488901,79.883014 63.084901,79.883014 C62.680901,79.883014 62.307901,79.599014 62.307901,79.094014 M61.060901,77.538014 L60.671901,77.823014 L60.671901,77.407014 L61.060901,77.123014 L61.453901,77.123014 L61.453901,79.860014 L61.060901,79.860014" id="Fill-276" fill="#807E82"></path>
        <path d="M21.414802,10.172115 C21.414802,9.906115 21.260802,9.754115 21.029802,9.754115 C20.798802,9.754115 20.644802,9.906115 20.644802,10.172115 L20.644802,11.333115 C20.644802,11.598115 20.798802,11.752115 21.029802,11.752115 C21.260802,11.752115 21.414802,11.598115 21.414802,11.333115 M20.252802,10.149115 C20.252802,9.646115 20.625802,9.361115 21.029802,9.361115 C21.433802,9.361115 21.807802,9.646115 21.807802,10.149115 L21.807802,11.355115 C21.807802,11.859115 21.433802,12.144115 21.029802,12.144115 C20.625802,12.144115 20.252802,11.859115 20.252802,11.355115 M19.005802,9.799115 L18.617802,10.084115 L18.617802,9.668115 L19.005802,9.384115 L19.398802,9.384115 L19.398802,12.121115 L19.005802,12.121115" id="Fill-277" fill="#807E82"></path>
        <polyline id="Fill-278" fill="#807E82" points="30.389002 81.693416 30.000002 81.978416 30.000002 81.562416 30.389002 81.278416 30.782002 81.278416 30.782002 84.015416 30.389002 84.015416"></polyline>
        <path d="M20.256402,79.490916 L21.326402,78.153916 C21.410402,78.044916 21.426402,77.960916 21.426402,77.880916 C21.426402,77.688916 21.284402,77.492916 21.049402,77.492916 C20.837402,77.492916 20.668402,77.641916 20.649402,77.887916 L20.256402,77.887916 C20.261402,77.441916 20.607402,77.099916 21.019402,77.099916 C21.476402,77.099916 21.819402,77.450916 21.819402,77.883916 C21.819402,78.064916 21.769402,78.222916 21.654402,78.364916 L20.772402,79.466916 L21.819402,79.466916 L21.819402,79.859916 L20.256402,79.859916" id="Fill-279" fill="#807E82"></path>
        <path d="M12.342402,71.598716 L12.477402,71.598716 C12.738402,71.598716 12.900402,71.433716 12.900402,71.210716 C12.900402,70.987716 12.719402,70.813716 12.499402,70.813716 C12.334402,70.813716 12.165402,70.923716 12.123402,71.144716 L11.730402,71.144716 C11.761402,70.757716 12.095402,70.423716 12.485402,70.423716 C12.973402,70.423716 13.292402,70.803716 13.292402,71.203716 C13.292402,71.409716 13.227402,71.622716 12.999402,71.767716 C13.231402,71.914716 13.324402,72.145716 13.324402,72.367716 C13.324402,72.875716 12.957402,73.204716 12.492402,73.204716 C12.123402,73.204716 11.788402,72.959716 11.714402,72.501716 L12.107402,72.501716 C12.180402,72.690716 12.291402,72.813716 12.515402,72.813716 C12.735402,72.813716 12.931402,72.647716 12.931402,72.379716 C12.931402,72.106716 12.738402,71.944716 12.507402,71.944716 L12.342402,71.944716" id="Fill-280" fill="#807E82"></path>
        <polyline id="Fill-281" fill="#807E82" points="5.619402 64.541816 6.535402 62.580816 6.974402 62.580816 6.047402 64.541816 6.762402 64.541816 6.762402 63.753816 7.154402 63.753816 7.154402 64.541816 7.374402 64.541816 7.374402 64.910816 7.154402 64.910816 7.154402 65.317816 6.762402 65.317816 6.762402 64.910816 5.619402 64.910816"></polyline>
        <polyline id="Fill-282" fill="#807E82" points="51.732401 6.357715 51.344401 6.642715 51.344401 6.227715 51.732401 5.942715 52.125401 5.942715 52.125401 8.678715 51.732401 8.678715"></polyline>
        <path d="M60.469301,12.168415 L61.539301,10.830415 C61.623301,10.723415 61.639301,10.639415 61.639301,10.558415 C61.639301,10.365415 61.496301,10.170415 61.262301,10.170415 C61.050301,10.170415 60.880301,10.319415 60.861301,10.565415 L60.469301,10.565415 C60.473301,10.120415 60.820301,9.777415 61.231301,9.777415 C61.689301,9.777415 62.032301,10.127415 62.032301,10.562415 C62.032301,10.742415 61.982301,10.900415 61.867301,11.041415 L60.985301,12.145415 L62.032301,12.145415 L62.032301,12.537415 L60.469301,12.537415" id="Fill-283" fill="#807E82"></path>
        <path d="M69.492601,17.186015 L69.626601,17.186015 C69.888601,17.186015 70.050601,17.022015 70.050601,16.798015 C70.050601,16.575015 69.868601,16.402015 69.649601,16.402015 C69.483601,16.402015 69.315601,16.510015 69.272601,16.733015 L68.879601,16.733015 C68.910601,16.345015 69.245601,16.010015 69.634601,16.010015 C70.123601,16.010015 70.442601,16.391015 70.442601,16.791015 C70.442601,16.998015 70.377601,17.209015 70.149601,17.356015 C70.381601,17.502015 70.473601,17.732015 70.473601,17.955015 C70.473601,18.462015 70.107601,18.793015 69.642601,18.793015 C69.272601,18.793015 68.937601,18.548015 68.864601,18.090015 L69.257601,18.090015 C69.330601,18.277015 69.441601,18.401015 69.665601,18.401015 C69.884601,18.401015 70.081601,18.235015 70.081601,17.967015 C70.081601,17.693015 69.888601,17.532015 69.657601,17.532015 L69.492601,17.532015" id="Fill-284" fill="#807E82"></path>
        <polyline id="Fill-285" fill="#807E82" points="74.952601 26.599815 75.868601 24.638815 76.307601 24.638815 75.379601 26.599815 76.095601 26.599815 76.095601 25.811815 76.488601 25.811815 76.488601 26.599815 76.707601 26.599815 76.707601 26.968815 76.488601 26.968815 76.488601 27.375815 76.095601 27.375815 76.095601 26.968815 74.952601 26.968815"></polyline>
        <path d="M78.664701,33.988615 L80.122701,33.988615 L80.122701,34.379615 L79.033701,34.379615 L79.033701,34.998615 C79.164701,34.895615 79.303701,34.848615 79.472701,34.848615 C79.680701,34.848615 79.861701,34.940615 79.961701,35.047615 C80.111701,35.210615 80.177701,35.344615 80.177701,35.798615 C80.177701,36.162615 80.126701,36.305615 80.007701,36.455615 C79.896701,36.597615 79.687701,36.746615 79.414701,36.746615 C79.060701,36.746615 78.672701,36.547615 78.613701,36.036615 L79.006701,36.036615 C79.049701,36.232615 79.180701,36.356615 79.399701,36.356615 C79.784701,36.356615 79.784701,36.024615 79.784701,35.766615 C79.784701,35.463615 79.710701,35.241615 79.388701,35.241615 C79.237701,35.241615 79.126701,35.301615 79.033701,35.467615 L78.664701,35.467615" id="Fill-286" fill="#807E82"></path>
        <path d="M6.794202,25.792515 C6.994202,25.792515 7.187202,25.657515 7.187202,25.400515 C7.187202,25.142515 6.994202,25.007515 6.794202,25.007515 C6.594202,25.007515 6.401202,25.142515 6.401202,25.400515 C6.401202,25.657515 6.594202,25.792515 6.794202,25.792515 M6.794202,27.007515 C7.028202,27.007515 7.236202,26.823515 7.236202,26.573515 C7.236202,26.322515 7.028202,26.138515 6.794202,26.138515 C6.559202,26.138515 6.352202,26.322515 6.352202,26.573515 C6.352202,26.823515 6.559202,27.007515 6.794202,27.007515 M6.282202,25.961515 C6.121202,25.816515 6.009202,25.646515 6.009202,25.407515 C6.009202,24.966515 6.352202,24.617515 6.794202,24.617515 C7.236202,24.617515 7.579202,24.966515 7.579202,25.407515 C7.579202,25.646515 7.468202,25.816515 7.306202,25.961515 C7.514202,26.099515 7.629202,26.318515 7.629202,26.576515 C7.629202,27.061515 7.248202,27.399515 6.794202,27.399515 C6.340202,27.399515 5.959202,27.061515 5.959202,26.576515 C5.959202,26.318515 6.074202,26.099515 6.282202,25.961515" id="Fill-287" fill="#807E82"></path>
        <path d="M30.718602,6.357716 L30.329602,6.642716 L30.329602,6.227716 L30.718602,5.942716 L31.111602,5.942716 L31.111602,8.678716 L30.718602,8.678716 M28.870602,6.357716 L28.482602,6.642716 L28.482602,6.227716 L28.870602,5.942716 L29.263602,5.942716 L29.263602,8.678716 L28.870602,8.678716" id="Fill-288" fill="#807E82"></path>
        <path d="M53.272801,0.678616 L52.056801,0.678616 L52.056801,0.080616 L55.162801,0.080616 L55.162801,0.678616 L53.946801,0.678616 L53.946801,4.514616 L53.272801,4.514616 L53.272801,0.678616 Z M50.908801,2.576616 L49.151801,2.576616 L49.151801,4.514616 L48.477801,4.514616 L48.477801,0.080616 L49.151801,0.080616 L49.151801,1.980616 L50.908801,1.980616 L50.908801,0.080616 L51.582801,0.080616 L51.582801,4.514616 L50.908801,4.514616 L50.908801,2.576616 Z M46.113801,2.073616 L47.691801,2.073616 L47.691801,2.976616 C47.691801,3.854616 46.993801,4.551616 46.108801,4.551616 C45.409801,4.551616 44.930801,4.140616 44.717801,3.754616 C44.573801,3.493616 44.523801,3.362616 44.523801,2.298616 C44.523801,1.232616 44.573801,1.101616 44.717801,0.840616 C44.930801,0.454616 45.409801,0.042616 46.108801,0.042616 C46.949801,0.042616 47.529801,0.634616 47.666801,1.357616 L46.956801,1.357616 C46.850801,1.015616 46.531801,0.715616 46.108801,0.715616 C45.789801,0.715616 45.559801,0.865616 45.422801,1.039616 C45.247801,1.263616 45.197801,1.388616 45.197801,2.298616 C45.197801,3.207616 45.247801,3.331616 45.422801,3.555616 C45.559801,3.729616 45.789801,3.878616 46.108801,3.878616 C46.619801,3.878616 47.018801,3.493616 47.018801,2.939616 L47.018801,2.707616 L46.113801,2.707616 L46.113801,2.073616 Z M43.065801,4.514616 L43.738801,4.514616 L43.738801,0.080616 L43.065801,0.080616 L43.065801,4.514616 Z M38.799801,0.080616 L39.435801,0.080616 L41.443801,3.231616 L41.456801,3.231616 L41.456801,0.080616 L42.130801,0.080616 L42.130801,4.514616 L41.493801,4.514616 L39.486801,1.363616 L39.473801,1.363616 L39.473801,4.514616 L38.799801,4.514616 L38.799801,0.080616 Z M35.545801,3.878616 L36.349801,3.878616 C36.729801,3.878616 36.998801,3.747616 37.173801,3.493616 C37.322801,3.268616 37.341801,3.144616 37.341801,2.322616 C37.341801,1.525616 37.322801,1.332616 37.141801,1.089616 C36.935801,0.809616 36.711801,0.715616 36.349801,0.715616 L35.545801,0.715616 L35.545801,3.878616 Z M34.872801,0.080616 L36.424801,0.080616 C37.010801,0.080616 37.491801,0.341616 37.777801,0.828616 C37.995801,1.201616 38.014801,1.370616 38.014801,2.298616 C38.014801,3.293616 37.964801,3.468616 37.765801,3.779616 C37.503801,4.191616 37.041801,4.514616 36.380801,4.514616 L34.872801,4.514616 L34.872801,0.080616 Z M33.263801,4.514616 L33.937801,4.514616 L33.937801,0.080616 L33.263801,0.080616 L33.263801,4.514616 Z M28.537801,0.080616 L29.172801,0.080616 L30.444801,2.969616 L31.692801,0.080616 L32.327801,0.080616 L32.327801,4.514616 L31.654801,4.514616 L31.654801,1.749616 L31.642801,1.749616 L30.712801,3.878616 L30.151801,3.878616 L29.222801,1.749616 L29.210801,1.749616 L29.210801,4.514616 L28.537801,4.514616 L28.537801,0.080616 Z" id="Fill-289" fill="#807E82"></path>
        <path d="M81.164401,46.372715 C81.164401,46.679715 81.318401,46.822715 81.557401,46.822715 C81.738401,46.822715 81.949401,46.699715 81.949401,46.372715 C81.949401,46.064715 81.773401,45.922715 81.557401,45.922715 C81.342401,45.922715 81.164401,46.064715 81.164401,46.372715 M81.610401,44.454715 L82.049401,44.454715 L81.473401,45.611715 L81.479401,45.611715 C81.538401,45.587715 81.622401,45.576715 81.688401,45.576715 C82.034401,45.576715 82.342401,45.806715 82.342401,46.337715 C82.342401,46.963715 81.942401,47.213715 81.534401,47.213715 C81.153401,47.213715 80.772401,46.894715 80.772401,46.379715 C80.772401,46.218715 80.807401,46.060715 80.876401,45.922715" id="Fill-290" fill="#807E82"></path>
        <path d="M0.641604,46.372715 C0.641604,46.679715 0.795604,46.822715 1.034604,46.822715 C1.215604,46.822715 1.426604,46.699715 1.426604,46.372715 C1.426604,46.064715 1.249604,45.922715 1.034604,45.922715 C0.819604,45.922715 0.641604,46.064715 0.641604,46.372715 M1.088604,44.454715 L1.527604,44.454715 L0.949604,45.611715 L0.957604,45.611715 C1.014604,45.587715 1.099604,45.576715 1.164604,45.576715 C1.511604,45.576715 1.819604,45.806715 1.819604,46.337715 C1.819604,46.963715 1.419604,47.213715 1.011604,47.213715 C0.630604,47.213715 0.249604,46.894715 0.249604,46.379715 C0.249604,46.218715 0.283604,46.060715 0.353604,45.922715" id="Fill-291" fill="#807E82"></path>
        <path d="M45.594004,84.078514 L46.230004,84.078514 L48.237004,87.229514 L48.250004,87.229514 L48.250004,84.078514 L48.923004,84.078514 L48.923004,88.512514 L48.287004,88.512514 L46.279004,85.361514 L46.268004,85.361514 L46.268004,88.512514 L45.594004,88.512514 M42.539004,87.553514 C42.676004,87.727514 42.906004,87.876514 43.225004,87.876514 C43.543004,87.876514 43.773004,87.727514 43.910004,87.553514 C44.085004,87.329514 44.135004,87.205514 44.135004,86.296514 C44.135004,85.385514 44.085004,85.261514 43.910004,85.037514 C43.773004,84.863514 43.543004,84.714514 43.225004,84.714514 C42.906004,84.714514 42.676004,84.863514 42.539004,85.037514 C42.364004,85.261514 42.313004,85.385514 42.313004,86.296514 C42.313004,87.205514 42.364004,87.329514 42.539004,87.553514 M41.834004,84.837514 C42.046004,84.452514 42.525004,84.041514 43.225004,84.041514 C43.923004,84.041514 44.403004,84.452514 44.615004,84.837514 C44.758004,85.099514 44.808004,85.230514 44.808004,86.296514 C44.808004,87.360514 44.758004,87.491514 44.615004,87.753514 C44.403004,88.138514 43.923004,88.550514 43.225004,88.550514 C42.525004,88.550514 42.046004,88.138514 41.834004,87.753514 C41.690004,87.491514 41.641004,87.360514 41.641004,86.296514 C41.641004,85.230514 41.690004,85.099514 41.834004,84.837514 M38.734004,87.553514 C38.872004,87.727514 39.102004,87.876514 39.421004,87.876514 C39.739004,87.876514 39.969004,87.727514 40.107004,87.553514 C40.281004,87.329514 40.332004,87.205514 40.332004,86.296514 C40.332004,85.385514 40.281004,85.261514 40.107004,85.037514 C39.969004,84.863514 39.739004,84.714514 39.421004,84.714514 C39.102004,84.714514 38.872004,84.863514 38.734004,85.037514 C38.560004,85.261514 38.510004,85.385514 38.510004,86.296514 C38.510004,87.205514 38.560004,87.329514 38.734004,87.553514 M38.030004,84.837514 C38.242004,84.452514 38.722004,84.041514 39.421004,84.041514 C40.119004,84.041514 40.600004,84.452514 40.811004,84.837514 C40.955004,85.099514 41.005004,85.230514 41.005004,86.296514 C41.005004,87.360514 40.955004,87.491514 40.811004,87.753514 C40.600004,88.138514 40.119004,88.550514 39.421004,88.550514 C38.722004,88.550514 38.242004,88.138514 38.030004,87.753514 C37.887004,87.491514 37.837004,87.360514 37.837004,86.296514 C37.837004,85.230514 37.887004,85.099514 38.030004,84.837514 M33.722004,84.078514 L34.358004,84.078514 L36.365004,87.229514 L36.377004,87.229514 L36.377004,84.078514 L37.051004,84.078514 L37.051004,88.512514 L36.416004,88.512514 L34.407004,85.361514 L34.396004,85.361514 L34.396004,88.512514 L33.722004,88.512514" id="Fill-292" fill="#807E82"></path>
        <path d="M76.392104,54.687614 C77.278104,51.544614 77.753104,48.228614 77.753104,44.800614 C77.753104,24.694614 61.435104,8.396614 41.304104,8.396614 C34.506104,8.396614 22.758104,11.479614 15.180104,19.323614 L41.343104,45.243614" id="Fill-293" fill="#8CC63E"></path>
        <path d="M74.750014,48.389022 L75.702014,48.389022 L75.702014,47.437022 L74.750014,47.437022 L74.750014,48.389022 Z M67.727014,41.747022 L68.679014,41.747022 L70.585014,46.075022 L72.452014,41.747022 L73.405014,41.747022 L73.405014,48.389022 L72.396014,48.389022 L72.396014,44.248022 L72.378014,44.248022 L70.987014,47.437022 L70.145014,47.437022 L68.754014,44.248022 L68.735014,44.248022 L68.735014,48.389022 L67.727014,48.389022 L67.727014,41.747022 Z M65.429014,48.389022 L66.382014,48.389022 L66.382014,47.437022 L65.429014,47.437022 L65.429014,48.389022 Z M62.907014,46.011022 L61.945014,43.110022 L61.926014,43.110022 L60.965014,46.011022 L62.907014,46.011022 Z M63.197014,46.906022 L60.675014,46.906022 L60.162014,48.389022 L59.097014,48.389022 L61.516014,41.747022 L62.356014,41.747022 L64.775014,48.389022 L63.711014,48.389022 L63.197014,46.906022 Z" id="Fill-294" fill="#FFFFFF"></path>
        <path d="M21.065014,48.389022 L22.018014,48.389022 L22.018014,47.437022 L21.065014,47.437022 L21.065014,48.389022 Z M14.041014,41.747022 L14.994014,41.747022 L16.900014,46.075022 L18.768014,41.747022 L19.720014,41.747022 L19.720014,48.389022 L18.712014,48.389022 L18.712014,44.248022 L18.693014,44.248022 L17.302014,47.437022 L16.460014,47.437022 L15.069014,44.248022 L15.051014,44.248022 L15.051014,48.389022 L14.041014,48.389022 L14.041014,41.747022 Z M11.744014,48.389022 L12.696014,48.389022 L12.696014,47.437022 L11.744014,47.437022 L11.744014,48.389022 Z M8.475014,44.844022 L9.969014,44.844022 C10.717014,44.844022 11.080014,44.293022 11.080014,43.771022 C11.080014,43.323022 10.904014,43.053022 10.651014,42.885022 C10.427014,42.736022 10.221014,42.699022 9.932014,42.699022 L8.475014,42.699022 L8.475014,44.844022 Z M7.466014,41.747022 L9.876014,41.747022 C10.399014,41.747022 10.857014,41.813022 11.371014,42.214022 C11.772014,42.522022 12.089014,43.082022 12.089014,43.799022 C12.089014,44.742022 11.371014,45.796022 10.006014,45.796022 L8.475014,45.796022 L8.475014,48.389022 L7.466014,48.389022 L7.466014,41.747022 Z" id="Fill-295" fill="#FFFFFF"></path>
        <path d="M6.063521,54.127616 C10.188521,69.714616 24.402521,81.204616 41.303521,81.204616 C44.628521,81.204616 47.849521,80.757616 50.909521,79.923616 L41.343521,45.243616" id="Fill-296" fill="#F16549"></path>
        <polyline id="Fill-297" fill="#F7971C" points="79.417418 52.802216 82.438418 52.802216 82.438418 53.562216 80.640418 58.108216 79.790418 58.108216 81.588418 53.562216 80.177418 53.562216 80.177418 54.330216 79.417418 54.330216"></polyline>
        <polyline id="Fill-298" fill="#F7971C" points="0.83792 32.885416 3.85892 32.885416 3.85892 33.646416 2.06092 38.191416 1.21092 38.191416 3.00892 33.646416 1.59792 33.646416 1.59792 34.413416 0.83792 34.413416"></polyline>
        <path d="M56.00022,82.721216 L55.24622,83.272216 L55.24622,82.468216 L56.00022,81.916216 L56.76022,81.916216 L56.76022,87.221216 L56.00022,87.221216 M52.41922,82.721216 L51.66522,83.272216 L51.66522,82.468216 L52.41922,81.916216 L53.18022,81.916216 L53.18022,87.221216 L52.41922,87.221216" id="Fill-299" fill="#F7971C"></path>
        <path d="M0.487319,54.022716 L3.315319,54.022716 L3.315319,54.782716 L1.203319,54.782716 L1.203319,55.982716 C1.456319,55.780716 1.726319,55.692716 2.054319,55.692716 C2.456319,55.692716 2.807319,55.870716 3.002319,56.079716 C3.292319,56.392716 3.418319,56.652716 3.418319,57.532716 C3.418319,58.239716 3.323319,58.514716 3.091319,58.806716 C2.875319,59.081716 2.472319,59.372716 1.941319,59.372716 C1.255319,59.372716 0.502319,58.985716 0.390319,57.993716 L1.151319,57.993716 C1.233319,58.374716 1.487319,58.612716 1.913319,58.612716 C2.659319,58.612716 2.659319,57.970716 2.659319,57.471716 C2.659319,56.884716 2.516319,56.450716 1.890319,56.450716 C1.599319,56.450716 1.383319,56.570716 1.203319,56.891716 L0.487319,56.891716" id="Fill-300" fill="#F7971C"></path>
        <path d="M12.886919,16.465217 C12.886919,16.157217 12.733919,16.015217 12.494919,16.015217 C12.313919,16.015217 12.102919,16.139217 12.102919,16.465217 C12.102919,16.772217 12.278919,16.915217 12.494919,16.915217 C12.709919,16.915217 12.886919,16.772217 12.886919,16.465217 M12.440919,18.384217 L12.001919,18.384217 L12.578919,17.227217 L12.571919,17.227217 C12.513919,17.249217 12.429919,17.260217 12.363919,17.260217 C12.017919,17.260217 11.709919,17.031217 11.709919,16.500217 C11.709919,15.874217 12.109919,15.624217 12.517919,15.624217 C12.898919,15.624217 13.279919,15.942217 13.279919,16.458217 C13.279919,16.619217 13.244919,16.777217 13.174919,16.915217" id="Fill-301" fill="#807E82"></path>
    </g>
</svg>
