<?xml version="1.0" encoding="UTF-8" standalone="no"?><!DOCTYPE svg PUBLIC "-//W3C//DTD SVG 1.1//EN" "http://www.w3.org/Graphics/SVG/1.1/DTD/svg11.dtd"><svg width="100%" height="100%" viewBox="0 0 800 800" version="1.1" xmlns="http://www.w3.org/2000/svg" xmlns:xlink="http://www.w3.org/1999/xlink" xml:space="preserve" style="fill-rule:evenodd;clip-rule:evenodd;stroke-linejoin:round;stroke-miterlimit:1.41421;"><circle cx="400" cy="400" r="199.026" style="fill:#88c345;"/><clipPath id="_clip1"><path d="M589.559,460.363l-381.397,-113.94l-56.379,188.721l381.397,113.94l56.379,-188.721Z"/></clipPath><g clip-path="url(#_clip1)"><path d="M456.421,210.717c105.25,31.443 165.171,142.42 133.729,247.669c-31.443,105.249 -142.419,165.171 -247.669,133.728c-105.249,-31.442 -165.171,-142.419 -133.728,-247.668c31.442,-105.249 142.419,-165.171 247.668,-133.729Z" style="fill:#ffb935;"/></g><text x="476.172px" y="206.155px" style="font-family:'ArialMT', 'Arial', sans-serif;font-size:26.299px;fill:#a5a0a3;">1</text><text x="523.354px" y="233.728px" style="font-family:'ArialMT', 'Arial', sans-serif;font-size:26.299px;fill:#a5a0a3;">2</text><text x="562.748px" y="275.457px" style="font-family:'ArialMT', 'Arial', sans-serif;font-size:26.299px;fill:#a5a0a3;">3</text><text x="591.142px" y="319.157px" style="font-family:'ArialMT', 'Arial', sans-serif;font-size:26.299px;fill:#a5a0a3;">4</text><text x="603.637px" y="367.417px" style="font-family:'ArialMT', 'Arial', sans-serif;font-size:26.299px;fill:#a5a0a3;">5</text><text x="605.113px" y="418.34px" style="font-family:'ArialMT', 'Arial', sans-serif;font-size:26.299px;fill:#a5a0a3;">6</text><text x="598.738px" y="478.983px" style="font-family:'Arial-BoldMT', 'Arial', sans-serif;font-weight:700;font-size:36.148px;fill:#ffbe22;">7</text><text x="524.176px" y="430.856px" style="font-family:'ArialMT', 'Arial', sans-serif;font-size:36.681px;fill:#fff;">A<tspan x="548.299px 558.348px 588.476px " y="430.856px 430.856px 430.856px ">.M.</tspan></text><text x="582.776px" y="519.004px" style="font-family:'ArialMT', 'Arial', sans-serif;font-size:26.299px;fill:#a5a0a3;">8</text><text x="559.334px" y="555.508px" style="font-family:'ArialMT', 'Arial', sans-serif;font-size:26.299px;fill:#a5a0a3;">9</text><text x="514.091px" y="587.956px" style="font-family:'ArialMT', 'Arial', sans-serif;font-size:26.299px;fill:#a5a0a3;">10</text><text x="461.851px" y="620.43px" style="font-family:'Arial-BoldMT', 'Arial', sans-serif;font-weight:700;font-size:34.9px;fill:#ffbe22;">1<tspan x="479.335px " y="620.43px ">1</tspan></text><text x="327.332px" y="618.086px" style="font-family:'ArialMT', 'Arial', sans-serif;font-size:26.299px;fill:#a5a0a3;">1</text><text x="367.496px" y="642.361px" style="font-family:'Arial-BoldMT', 'Arial', sans-serif;font-weight:700;font-size:28.513px;fill:#a5a0a3;">NOON</text><text x="325.887px" y="166.471px" style="font-family:'Arial-BoldMT', 'Arial', sans-serif;font-weight:700;font-size:32.741px;fill:#a5a0a3;">MIDNIGHT</text><text x="272.774px" y="594.176px" style="font-family:'ArialMT', 'Arial', sans-serif;font-size:26.299px;fill:#a5a0a3;">2</text><text x="231.138px" y="560.8px" style="font-family:'ArialMT', 'Arial', sans-serif;font-size:26.299px;fill:#a5a0a3;">3</text><text x="204.635px" y="521.051px" style="font-family:'ArialMT', 'Arial', sans-serif;font-size:26.299px;fill:#a5a0a3;">4</text><text x="177.838px" y="472.903px" style="font-family:'Arial-BoldMT', 'Arial', sans-serif;font-weight:700;font-size:40.66px;fill:#ffbe22;">5</text><text x="176.2px" y="405.194px" style="font-family:'ArialMT', 'Arial', sans-serif;font-size:26.299px;fill:#a5a0a3;">6</text><text x="176.961px" y="356.138px" style="font-family:'Arial-BoldMT', 'Arial', sans-serif;font-weight:700;font-size:38.144px;fill:#ffbe22;">7</text><text x="203.458px" y="300.059px" style="font-family:'ArialMT', 'Arial', sans-serif;font-size:26.299px;fill:#a5a0a3;">8</text><text x="231.053px" y="259.202px" style="font-family:'ArialMT', 'Arial', sans-serif;font-size:26.299px;fill:#a5a0a3;">9</text><text x="258.922px" y="223.785px" style="font-family:'ArialMT', 'Arial', sans-serif;font-size:26.299px;fill:#a5a0a3;">10</text><text x="317.932px" y="198.366px" style="font-family:'ArialMT', 'Arial', sans-serif;font-size:26.299px;fill:#a5a0a3;">1<tspan x="330.606px " y="198.366px ">1</tspan></text><clipPath id="_clip2"><path d="M589.559,460.363l-381.397,-113.94l-56.379,188.721l381.397,113.94l56.379,-188.721Z"/></clipPath><g clip-path="url(#_clip2)"><path d="M456.421,210.717c105.25,31.443 165.171,142.42 133.729,247.669c-31.443,105.249 -142.419,165.171 -247.669,133.728c-105.249,-31.442 -165.171,-142.419 -133.728,-247.668c31.442,-105.249 142.419,-165.171 247.668,-133.729Z" style="fill:#f96748;"/></g><path d="M395.034,402.034l69.703,186.332c-21.403,11.935 -62.063,16.175 -103.165,8.15c-8.986,-1.755 -17.992,-4.018 -26.824,-7.049c-14.88,-5.107 -29.263,-12.088 -42.208,-20.257c-3.474,-2.192 -8.901,-5.495 -14.404,-9.877c-2.617,-2.084 -5.421,-4.258 -8.057,-6.599c-1.303,-1.156 -2.352,-2.573 -3.736,-3.608c-13.029,-9.737 -23.403,-25.629 -31.964,-37.479c-19.303,-26.717 -27.459,-57.086 -28.6,-64.903l189.255,-44.71Z" style="fill:#ffb935;"/><text x="206.228px" y="406.507px" style="font-family:'ArialMT', 'Arial', sans-serif;font-size:36.681px;fill:#fff;">P<tspan x="225.689px 235.738px 265.866px " y="406.507px 406.507px 406.507px ">.M.</tspan></text></svg>