<?xml version="1.0" encoding="UTF-8" standalone="no"?><!DOCTYPE svg PUBLIC "-//W3C//DTD SVG 1.1//EN" "http://www.w3.org/Graphics/SVG/1.1/DTD/svg11.dtd">
<svg width="56px" height="54px" viewBox="342 680 56 54" version="1.1" xmlns="http://www.w3.org/2000/svg" xmlns:xlink="http://www.w3.org/1999/xlink">
    <!-- Generator: Sketch 3.8.3 (29802) - http://www.bohemiancoding.com/sketch -->
    <desc>Created with Sketch.</desc>
    <defs>
        <polygon id="path-1" points="0.950001 0.700669 0.950001 52.706175 55.352985 52.706175 55.352985 0.700669 0.950001 0.700669"></polygon>
    </defs>
    <g id="Group-121" stroke="none" stroke-width="1" fill="none" fill-rule="evenodd" transform="translate(342.000000, 680.376000)">
        <mask id="mask-2" fill="white">
            <use xlink:href="#path-1"></use>
        </mask>
        <g id="Clip-29"></g>
        <path d="M22.323182,12.791765 C22.323182,14.085765 21.297182,15.460765 20.005182,15.460765 L18.106182,15.460765 L18.106182,17.351765 C18.106182,18.644765 17.117182,19.676765 15.826182,19.676765 L15.567182,19.676765 C14.274182,19.676765 12.485182,18.644765 12.485182,17.351765 L12.485182,15.460765 L10.627182,15.460765 C9.335182,15.460765 8.267182,14.085765 8.267182,12.791765 L8.267182,12.535765 C8.267182,11.240765 9.335182,10.541765 10.627182,10.541765 L12.485182,10.541765 L12.485182,7.973765 C12.485182,6.681765 14.274182,5.621765 15.567182,5.621765 L15.826182,5.621765 C17.117182,5.621765 18.106182,6.681765 18.106182,7.973765 L18.106182,10.541765 L20.005182,10.541765 C21.297182,10.541765 22.323182,11.240765 22.323182,12.535765 M21.794182,0.701765 L8.796182,0.701765 C5.787182,0.701765 3.349182,3.141765 3.349182,6.148765 L3.349182,19.147765 C3.349182,22.156765 5.787182,24.595765 8.796182,24.595765 L21.794182,24.595765 C24.803182,24.595765 27.242182,22.156765 27.242182,19.147765 L27.242182,6.148765 C27.242182,3.141765 24.803182,0.701765 21.794182,0.701765" id="Fill-28" fill="#0194D2" mask="url(#mask-2)"></path>
        <path d="M20.377992,42.727175 C21.290992,43.641175 21.290992,45.122175 20.377992,46.037175 L20.196992,46.220175 C19.281992,47.133175 17.798992,47.133175 16.884992,46.220175 L15.584992,44.919175 L14.014992,46.488175 C13.101992,47.401175 11.618992,47.401175 10.705992,46.488175 L10.522992,46.306175 C9.609992,45.391175 9.609992,43.910175 10.522992,42.996175 L12.091992,41.426175 L10.254992,39.588175 C9.339992,38.674175 9.339992,37.193175 10.254992,36.279175 L10.437992,36.096175 C11.351992,35.182175 12.833992,35.182175 13.746992,36.096175 L15.584992,37.933175 L17.153992,36.364175 C18.066992,35.452175 19.548992,35.452175 20.463992,36.364175 L20.645992,36.548175 C21.560992,37.463175 21.560992,38.941175 20.645992,39.857175 L19.077992,41.426175 M21.793992,28.812175 L8.796992,28.812175 C5.786992,28.812175 3.348992,31.251175 3.348992,34.259175 L3.348992,47.258175 C3.348992,50.267175 5.786992,52.706175 8.796992,52.706175 L21.793992,52.706175 C24.802992,52.706175 27.241992,50.267175 27.241992,47.258175 L27.241992,34.259175 C27.241992,31.251175 24.802992,28.812175 21.793992,28.812175" id="Fill-30" fill="#0194D2" mask="url(#mask-2)"></path>
        <path d="M50.432985,13.120669 C50.432985,14.413669 49.385985,15.460669 48.094985,15.460669 L38.716985,15.460669 C37.425985,15.460669 36.377985,14.413669 36.377985,13.120669 L36.377985,12.879669 C36.377985,11.586669 37.425985,10.541669 38.716985,10.541669 L48.094985,10.541669 C49.385985,10.541669 50.432985,11.586669 50.432985,12.879669 M49.904985,0.700669 L36.907985,0.700669 C33.897985,0.700669 31.458985,3.140669 31.458985,6.149669 L31.458985,19.149669 C31.458985,22.155669 33.897985,24.594669 36.907985,24.594669 L49.904985,24.594669 C52.912985,24.594669 55.352985,22.155669 55.352985,19.149669 L55.352985,6.149669 C55.352985,3.140669 52.912985,0.700669 49.904985,0.700669" id="Fill-31" fill="#0194D2" mask="url(#mask-2)"></path>
        <path d="M50.432985,37.63077 C50.432985,38.92477 49.645985,40.05577 48.354985,40.05577 L38.828985,40.05577 C37.537985,40.05577 36.377985,38.92477 36.377985,37.63077 L36.377985,37.57577 C36.377985,36.28577 37.537985,35.13677 38.828985,35.13677 L48.354985,35.13677 C49.645985,35.13677 50.432985,36.28577 50.432985,37.57577 M50.432985,44.39577 C50.432985,45.68577 49.645985,47.08377 48.354985,47.08377 L38.828985,47.08377 C37.537985,47.08377 36.377985,45.68577 36.377985,44.39577 L36.377985,44.34177 C36.377985,43.04877 37.537985,42.16377 38.828985,42.16377 L48.354985,42.16377 C49.645985,42.16377 50.432985,43.04877 50.432985,44.34177 M49.904985,28.81177 L36.907985,28.81177 C33.897985,28.81177 31.458985,31.25177 31.458985,34.25877 L31.458985,47.25877 C31.458985,50.26677 33.897985,52.70577 36.907985,52.70577 L49.904985,52.70577 C52.912985,52.70577 55.352985,50.26677 55.352985,47.25877 L55.352985,34.25877 C55.352985,31.25177 52.912985,28.81177 49.904985,28.81177" id="Fill-32" fill="#F16549" mask="url(#mask-2)"></path>
        <polygon id="Fill-33" fill="#010101" mask="url(#mask-2)" points="-32.632029 4.144972 -31.181029 4.144972 -31.181029 2.692972 -32.632029 2.692972"></polygon>
        <polygon id="Fill-34" fill="#010101" mask="url(#mask-2)" points="-22.474029 4.144972 -21.022029 4.144972 -21.022029 2.692972 -22.474029 2.692972"></polygon>
        <polyline id="Fill-35" fill="#010101" mask="url(#mask-2)" points="-13.765715 4.144671 -13.765715 2.692671 -15.217715 2.692671 -16.669715 2.692671 -16.669715 4.144671 -15.217715 4.144671"></polyline>
        <path d="M-2.155516,5.595065 L-2.155516,7.046065 L-2.155516,8.498065 L-2.155516,9.949065 L-2.155516,11.401065 L-3.607516,11.401065 L-5.058516,11.401065 L-6.509516,11.401065 L-7.960516,11.401065 L-9.412516,11.401065 L-9.412516,9.949065 L-9.412516,8.498065 L-9.412516,7.046065 L-9.412516,5.595065 L-9.412516,4.144065 L-7.960516,4.144065 L-6.509516,4.144065 L-5.058516,4.144065 L-3.607516,4.144065 L-2.155516,4.144065 M-2.155516,2.693065 L-3.607516,2.693065 L-5.058516,2.693065 L-6.509516,2.693065 L-7.960516,2.693065 L-9.412516,2.693065 L-10.863516,2.693065 L-10.863516,4.144065 L-10.863516,5.595065 L-10.863516,7.046065 L-10.863516,8.498065 L-10.863516,9.949065 L-10.863516,11.401065 L-10.863516,12.852065 L-9.412516,12.852065 L-7.960516,12.852065 L-6.509516,12.852065 L-5.058516,12.852065 L-3.607516,12.852065 L-2.155516,12.852065 L-0.704516,12.852065 L-0.704516,11.401065 L-0.704516,9.949065 L-0.704516,8.498065 L-0.704516,7.046065 L-0.704516,5.595065 L-0.704516,4.144065 L-0.704516,2.693065" id="Fill-36" fill="#010101" mask="url(#mask-2)"></path>
        <polyline id="Fill-37" fill="#010101" mask="url(#mask-2)" points="-34.083617 4.144671 -34.083617 2.692671 -35.535617 2.692671 -36.986617 2.692671 -36.986617 4.144671 -36.986617 5.595671 -36.986617 7.046671 -36.986617 8.498671 -35.535617 8.498671 -35.535617 7.046671 -34.083617 7.046671 -34.083617 5.595671 -32.631617 5.595671 -32.631617 4.144671"></polyline>
        <polygon id="Fill-38" fill="#010101" mask="url(#mask-2)" points="-21.023999 5.595972 -19.571999 5.595972 -19.571999 4.144972 -21.023999 4.144972"></polygon>
        <polyline id="Fill-39" fill="#010101" mask="url(#mask-2)" points="-25.375884 7.046374 -23.924884 7.046374 -22.472884 7.046374 -22.472884 8.499374 -21.022884 8.499374 -19.570884 8.499374 -19.570884 7.046374 -21.022884 7.046374 -21.022884 5.595374 -22.472884 5.595374 -23.924884 5.595374 -23.924884 4.144374 -25.375884 4.144374 -25.375884 5.595374 -26.827884 5.595374 -26.827884 4.144374 -25.375884 4.144374 -25.375884 2.693374 -26.827884 2.693374 -28.278884 2.693374 -28.278884 4.144374 -28.278884 5.595374 -28.278884 7.046374 -26.827884 7.046374"></polyline>
        <polyline id="Fill-40" fill="#010101" mask="url(#mask-2)" points="-18.119781 7.046374 -16.668781 7.046374 -15.216781 7.046374 -15.216781 8.499374 -15.216781 9.949374 -13.765781 9.949374 -13.765781 8.499374 -13.765781 7.046374 -13.765781 5.595374 -15.216781 5.595374 -16.668781 5.595374 -16.668781 4.144374 -18.119781 4.144374 -18.119781 5.595374 -19.571781 5.595374 -19.571781 7.046374"></polyline>
        <polyline id="Fill-41" fill="#010101" mask="url(#mask-2)" points="-6.50949 5.595065 -7.96149 5.595065 -7.96149 7.046065 -7.96149 8.498065 -7.96149 9.949065 -6.50949 9.949065 -5.05849 9.949065 -3.60649 9.949065 -3.60649 8.498065 -3.60649 7.046065 -3.60649 5.595065 -5.05849 5.595065"></polyline>
        <polyline id="Fill-42" fill="#010101" mask="url(#mask-2)" points="-42.791488 9.949069 -41.339488 9.949069 -41.339488 8.498069 -41.339488 7.046069 -41.339488 5.595069 -42.791488 5.595069 -44.242488 5.595069 -45.694488 5.595069 -45.694488 7.046069 -45.694488 8.498069 -45.694488 9.949069 -44.242488 9.949069"></polyline>
        <polyline id="Fill-43" fill="#010101" mask="url(#mask-2)" points="-31.180785 9.949069 -31.180785 8.498069 -29.729785 8.498069 -28.277785 8.498069 -28.277785 7.046069 -29.729785 7.046069 -29.729785 5.595069 -29.729785 4.145069 -31.180785 4.145069 -31.180785 5.595069 -32.631785 5.595069 -32.631785 7.046069 -32.631785 8.498069 -34.083785 8.498069 -34.083785 9.949069 -32.631785 9.949069"></polyline>
        <polyline id="Fill-44" fill="#010101" mask="url(#mask-2)" points="-25.375884 9.949069 -23.924884 9.949069 -23.924884 8.498069 -25.375884 8.498069 -26.827884 8.498069 -28.278884 8.498069 -28.278884 9.949069 -26.827884 9.949069"></polyline>
        <polyline id="Fill-45" fill="#010101" mask="url(#mask-2)" points="-34.083587 11.401278 -34.083587 9.948278 -35.535587 9.948278 -36.986587 9.948278 -36.986587 11.401278 -36.986587 12.852278 -35.535587 12.852278 -35.535587 11.401278"></polyline>
        <polygon id="Fill-46" fill="#010101" mask="url(#mask-2)" points="-29.729969 11.400972 -28.277969 11.400972 -28.277969 9.947972 -29.729969 9.947972"></polygon>
        <polyline id="Fill-47" fill="#010101" mask="url(#mask-2)" points="-16.66925 11.401278 -16.66925 12.852278 -18.12025 12.852278 -18.12025 11.401278 -19.57125 11.401278 -19.57125 12.852278 -19.57125 14.302278 -18.12025 14.302278 -18.12025 15.755278 -18.12025 17.205278 -16.66925 17.205278 -16.66925 15.755278 -16.66925 14.302278 -15.21725 14.302278 -15.21725 12.852278 -15.21725 11.401278 -15.21725 9.948278 -16.66925 9.948278"></polyline>
        <path d="M-47.145446,9.949069 L-47.145446,8.498069 L-47.145446,7.046069 L-47.145446,5.595069 L-47.145446,4.145069 L-45.693446,4.145069 L-44.242446,4.145069 L-42.791446,4.145069 L-41.340446,4.145069 L-39.888446,4.145069 L-39.888446,5.595069 L-39.888446,7.046069 L-39.888446,8.498069 L-39.888446,9.949069 L-39.888446,11.402069 L-41.340446,11.402069 L-42.791446,11.402069 L-44.242446,11.402069 L-45.693446,11.402069 L-47.145446,11.402069 M-45.693446,12.852069 L-44.242446,12.852069 L-42.791446,12.852069 L-41.340446,12.852069 L-39.888446,12.852069 L-38.437446,12.852069 L-38.437446,11.402069 L-38.437446,9.949069 L-38.437446,8.498069 L-38.437446,7.046069 L-38.437446,5.595069 L-38.437446,4.145069 L-38.437446,2.693069 L-39.888446,2.693069 L-41.340446,2.693069 L-42.791446,2.693069 L-44.242446,2.693069 L-45.693446,2.693069 L-47.145446,2.693069 L-48.596446,2.693069 L-48.596446,4.145069 L-48.596446,5.595069 L-48.596446,7.046069 L-48.596446,8.498069 L-48.596446,9.949069 L-48.596446,11.402069 L-48.596446,12.852069 L-47.145446,12.852069" id="Fill-48" fill="#010101" mask="url(#mask-2)"></path>
        <polygon id="Fill-49" fill="#010101" mask="url(#mask-2)" points="-31.180938 12.851972 -29.729938 12.851972 -29.729938 11.400972 -31.180938 11.400972"></polygon>
        <polygon id="Fill-50" fill="#010101" mask="url(#mask-2)" points="-25.375938 12.851972 -23.924938 12.851972 -23.924938 11.400972 -25.375938 11.400972"></polygon>
        <polyline id="Fill-51" fill="#010101" mask="url(#mask-2)" points="-21.022338 11.401278 -19.570338 11.401278 -19.570338 9.948278 -21.022338 9.948278 -22.474338 9.948278 -23.925338 9.948278 -23.925338 11.401278 -22.474338 11.401278 -22.474338 12.852278 -21.022338 12.852278"></polyline>
        <polyline id="Fill-52" fill="#010101" mask="url(#mask-2)" points="-32.631637 12.851672 -32.631637 11.400672 -34.083637 11.400672 -34.083637 12.851672 -35.534637 12.851672 -35.534637 14.302672 -34.083637 14.302672 -32.631637 14.302672 -31.180637 14.302672 -31.180637 12.851672"></polyline>
        <polyline id="Fill-53" fill="#010101" mask="url(#mask-2)" points="-41.340133 14.302066 -42.792133 14.302066 -42.792133 15.755066 -41.340133 15.755066 -39.888133 15.755066 -38.437133 15.755066 -38.437133 14.302066 -39.888133 14.302066"></polyline>
        <polygon id="Fill-54" fill="#010101" mask="url(#mask-2)" points="-31.180923 15.754973 -29.729923 15.754973 -29.729923 14.301973 -31.180923 14.301973"></polygon>
        <polygon id="Fill-55" fill="#010101" mask="url(#mask-2)" points="-21.021923 15.754973 -19.569923 15.754973 -19.569923 14.300973 -21.021923 14.300973"></polygon>
        <polyline id="Fill-56" fill="#010101" mask="url(#mask-2)" points="-7.96083 14.302066 -9.41183 14.302066 -9.41183 15.755066 -9.41183 17.205066 -7.96083 17.205066 -7.96083 15.755066"></polyline>
        <polyline id="Fill-57" fill="#010101" mask="url(#mask-2)" points="-3.607116 14.302066 -5.059116 14.302066 -6.510116 14.302066 -6.510116 15.755066 -5.059116 15.755066 -3.607116 15.755066 -2.155116 15.755066 -0.704116 15.755066 -0.704116 14.302066 -2.155116 14.302066"></polyline>
        <polyline id="Fill-58" fill="#010101" mask="url(#mask-2)" points="-47.145416 15.755267 -45.693416 15.755267 -45.693416 14.302267 -47.145416 14.302267 -48.596416 14.302267 -48.596416 15.755267 -48.596416 17.206267 -47.145416 17.206267"></polyline>
        <polygon id="Fill-59" fill="#010101" mask="url(#mask-2)" points="-35.534908 17.205972 -34.082908 17.205972 -34.082908 15.754972 -35.534908 15.754972"></polygon>
        <polyline id="Fill-60" fill="#010101" mask="url(#mask-2)" points="-15.217407 17.205676 -15.217407 18.656676 -13.765407 18.656676 -13.765407 17.205676 -13.765407 15.754676 -12.314407 15.754676 -12.314407 14.302676 -12.314407 12.851676 -12.314407 11.401676 -13.765407 11.401676 -13.765407 12.851676 -13.765407 14.302676 -15.217407 14.302676 -15.217407 15.754676"></polyline>
        <polygon id="Fill-61" fill="#010101" mask="url(#mask-2)" points="-29.729908 18.655972 -28.277908 18.655972 -28.277908 17.204972 -29.729908 17.204972"></polygon>
        <polygon id="Fill-62" fill="#010101" mask="url(#mask-2)" points="-19.570908 18.656972 -18.119908 18.656972 -18.119908 17.205972 -19.570908 17.205972"></polygon>
        <polyline id="Fill-63" fill="#010101" mask="url(#mask-2)" points="-18.11972 18.656069 -18.11972 20.108069 -18.11972 21.560069 -16.66872 21.560069 -15.21672 21.560069 -15.21672 20.108069 -15.21672 18.656069 -16.66872 18.656069"></polyline>
        <polygon id="Fill-64" fill="#010101" mask="url(#mask-2)" points="-39.887908 21.559972 -38.436908 21.559972 -38.436908 20.105972 -39.887908 20.105972"></polygon>
        <polygon id="Fill-65" fill="#010101" mask="url(#mask-2)" points="-13.766908 21.559972 -12.315908 21.559972 -12.315908 20.106972 -13.766908 20.106972"></polygon>
        <polyline id="Fill-66" fill="#010101" mask="url(#mask-2)" points="-9.411987 20.10747 -7.960987 20.10747 -7.960987 21.56047 -6.508987 21.56047 -6.508987 20.10747 -5.058987 20.10747 -5.058987 18.65547 -3.606987 18.65547 -3.606987 17.20547 -5.058987 17.20547 -6.508987 17.20547 -7.960987 17.20547 -7.960987 18.65547 -9.411987 18.65547 -10.863987 18.65547 -10.863987 20.10747 -10.863987 21.56047 -9.411987 21.56047"></polyline>
        <polyline id="Fill-67" fill="#010101" mask="url(#mask-2)" points="-3.607086 20.10747 -3.607086 21.56047 -2.155086 21.56047 -0.704086 21.56047 -0.704086 20.10747 -2.155086 20.10747"></polyline>
        <polygon id="Fill-68" fill="#010101" mask="url(#mask-2)" points="-44.242878 23.010972 -42.791878 23.010972 -42.791878 21.559972 -44.242878 21.559972"></polygon>
        <polyline id="Fill-69" fill="#010101" mask="url(#mask-2)" points="-41.340088 23.011065 -42.792088 23.011065 -42.792088 24.463065 -41.340088 24.463065 -41.340088 25.914065 -39.888088 25.914065 -39.888088 24.463065 -38.437088 24.463065 -36.986088 24.463065 -36.986088 23.011065 -38.437088 23.011065 -39.888088 23.011065 -39.888088 21.560065 -41.340088 21.560065"></polyline>
        <polygon id="Fill-70" fill="#010101" mask="url(#mask-2)" points="-12.315878 23.010972 -10.863878 23.010972 -10.863878 21.559972 -12.315878 21.559972"></polygon>
        <polygon id="Fill-71" fill="#010101" mask="url(#mask-2)" points="-6.509878 23.010972 -5.058878 23.010972 -5.058878 21.559972 -6.509878 21.559972"></polygon>
        <polyline id="Fill-72" fill="#010101" mask="url(#mask-2)" points="-3.607086 24.462374 -2.155086 24.462374 -2.155086 23.010374 -3.607086 23.010374 -5.059086 23.010374 -5.059086 24.462374"></polyline>
        <path d="M-31.180878,23.010972 L-29.729878,23.010972 L-29.729878,21.559972 L-31.180878,21.559972 L-31.180878,23.010972 Z M-25.375878,21.559972 L-23.924878,21.559972 L-23.924878,20.106972 L-25.375878,20.106972 L-25.375878,21.559972 Z M-22.473878,24.462972 L-23.924878,24.462972 L-23.924878,25.913972 L-22.473878,25.913972 L-21.021878,25.913972 L-19.571878,25.913972 L-19.571878,27.363972 L-18.119878,27.363972 L-16.668878,27.363972 L-15.216878,27.363972 L-15.216878,28.815972 L-16.668878,28.815972 L-18.119878,28.815972 L-19.571878,28.815972 L-19.571878,30.266972 L-21.021878,30.266972 L-22.473878,30.266972 L-22.473878,28.815972 L-22.473878,27.363972 L-23.924878,27.363972 L-25.375878,27.363972 L-25.375878,25.913972 L-25.375878,24.462972 L-23.924878,24.462972 L-23.924878,23.010972 L-22.473878,23.010972 L-22.473878,24.462972 Z M-25.375878,33.169972 L-23.924878,33.169972 L-23.924878,31.716972 L-25.375878,31.716972 L-25.375878,33.169972 Z M-25.375878,30.266972 L-23.924878,30.266972 L-23.924878,28.815972 L-25.375878,28.815972 L-25.375878,30.266972 Z M-35.534878,25.913972 L-35.534878,27.363972 L-35.534878,28.815972 L-35.534878,30.266972 L-35.534878,31.718972 L-34.082878,31.718972 L-34.082878,33.169972 L-32.631878,33.169972 L-32.631878,31.718972 L-32.631878,30.266972 L-31.180878,30.266972 L-29.729878,30.266972 L-29.729878,28.815972 L-31.180878,28.815972 L-31.180878,27.363972 L-32.631878,27.363972 L-32.631878,28.815972 L-34.082878,28.815972 L-34.082878,27.363972 L-32.631878,27.363972 L-32.631878,25.913972 L-31.180878,25.913972 L-29.729878,25.913972 L-29.729878,24.462972 L-28.277878,24.462972 L-28.277878,23.010972 L-26.826878,23.010972 L-26.826878,24.462972 L-26.826878,25.913972 L-26.826878,27.363972 L-28.277878,27.363972 L-28.277878,28.815972 L-26.826878,28.815972 L-26.826878,30.266972 L-28.277878,30.266972 L-28.277878,31.718972 L-26.826878,31.718972 L-26.826878,33.169972 L-28.277878,33.169972 L-28.277878,34.622972 L-28.277878,36.071972 L-26.826878,36.071972 L-26.826878,37.523972 L-25.375878,37.523972 L-25.375878,36.071972 L-23.924878,36.071972 L-23.924878,34.622972 L-22.473878,34.622972 L-22.473878,36.071972 L-23.924878,36.071972 L-23.924878,37.523972 L-25.375878,37.523972 L-25.375878,38.974972 L-26.826878,38.974972 L-28.277878,38.974972 L-28.277878,40.425972 L-28.277878,41.877972 L-26.826878,41.877972 L-26.826878,43.328972 L-25.375878,43.328972 L-25.375878,41.877972 L-25.375878,40.425972 L-23.924878,40.425972 L-23.924878,38.974972 L-22.473878,38.974972 L-22.473878,37.523972 L-21.021878,37.523972 L-21.021878,38.974972 L-21.021878,40.425972 L-19.571878,40.425972 L-19.571878,38.974972 L-18.119878,38.974972 L-18.119878,37.523972 L-19.571878,37.523972 L-19.571878,36.071972 L-21.021878,36.071972 L-21.021878,34.622972 L-21.021878,33.169972 L-22.473878,33.169972 L-22.473878,31.718972 L-21.021878,31.718972 L-19.571878,31.718972 L-19.571878,33.169972 L-18.119878,33.169972 L-18.119878,34.622972 L-16.668878,34.622972 L-16.668878,33.169972 L-16.668878,31.718972 L-16.668878,30.266972 L-15.216878,30.266972 L-13.764878,30.266972 L-13.764878,31.718972 L-13.764878,33.169972 L-12.315878,33.169972 L-12.315878,31.718972 L-10.863878,31.718972 L-10.863878,33.169972 L-9.411878,33.169972 L-9.411878,31.718972 L-9.411878,30.266972 L-7.960878,30.266972 L-7.960878,28.815972 L-7.960878,27.363972 L-6.509878,27.363972 L-6.509878,25.913972 L-5.058878,25.913972 L-5.058878,24.462972 L-6.509878,24.462972 L-6.509878,23.010972 L-7.960878,23.010972 L-7.960878,21.559972 L-9.411878,21.559972 L-9.411878,23.010972 L-10.863878,23.010972 L-10.863878,24.462972 L-9.411878,24.462972 L-7.960878,24.462972 L-7.960878,25.913972 L-9.411878,25.913972 L-10.863878,25.913972 L-10.863878,27.363972 L-9.411878,27.363972 L-9.411878,28.815972 L-10.863878,28.815972 L-10.863878,27.363972 L-12.315878,27.363972 L-12.315878,28.815972 L-13.764878,28.815972 L-13.764878,27.363972 L-13.764878,25.913972 L-13.764878,24.462972 L-12.315878,24.462972 L-12.315878,23.010972 L-13.764878,23.010972 L-13.764878,21.559972 L-15.216878,21.559972 L-15.216878,23.010972 L-16.668878,23.010972 L-16.668878,24.462972 L-15.216878,24.462972 L-15.216878,25.913972 L-16.668878,25.913972 L-16.668878,24.462972 L-18.119878,24.462972 L-19.571878,24.462972 L-21.021878,24.462972 L-21.021878,23.010972 L-21.021878,21.559972 L-19.571878,21.559972 L-19.571878,20.106972 L-19.571878,18.655972 L-21.021878,18.655972 L-22.473878,18.655972 L-23.924878,18.655972 L-25.375878,18.655972 L-25.375878,17.205972 L-23.924878,17.205972 L-23.924878,15.754972 L-22.473878,15.754972 L-22.473878,14.301972 L-22.473878,12.851972 L-23.924878,12.851972 L-23.924878,14.301972 L-25.375878,14.301972 L-25.375878,15.754972 L-26.826878,15.754972 L-26.826878,14.301972 L-25.375878,14.301972 L-25.375878,12.851972 L-26.826878,12.851972 L-26.826878,11.400972 L-28.277878,11.400972 L-28.277878,12.851972 L-28.277878,14.301972 L-28.277878,15.754972 L-28.277878,17.205972 L-26.826878,17.205972 L-26.826878,18.655972 L-28.277878,18.655972 L-28.277878,20.106972 L-26.826878,20.106972 L-26.826878,21.559972 L-28.277878,21.559972 L-28.277878,20.106972 L-29.729878,20.106972 L-29.729878,18.655972 L-31.180878,18.655972 L-31.180878,17.205972 L-31.180878,15.754972 L-32.631878,15.754972 L-32.631878,17.205972 L-32.631878,18.655972 L-34.082878,18.655972 L-34.082878,20.106972 L-34.082878,21.559972 L-32.631878,21.559972 L-32.631878,23.010972 L-34.082878,23.010972 L-34.082878,24.462972 L-35.534878,24.462972 L-36.985878,24.462972 L-36.985878,25.913972 L-35.534878,25.913972 Z" id="Fill-73" fill="#010101" mask="url(#mask-2)"></path>
        <polygon id="Fill-74" fill="#010101" mask="url(#mask-2)" points="-12.315878 25.913972 -10.863878 25.913972 -10.863878 24.461972 -12.315878 24.461972"></polygon>
        <polyline id="Fill-75" fill="#010101" mask="url(#mask-2)" points="-38.4375 27.364169 -36.9855 27.364169 -36.9855 25.913169 -38.4375 25.913169 -39.8885 25.913169 -39.8885 27.364169"></polyline>
        <polygon id="Fill-76" fill="#010101" mask="url(#mask-2)" points="-2.154878 27.363972 -0.703878 27.363972 -0.703878 25.912972 -2.154878 25.912972"></polygon>
        <polyline id="Fill-77" fill="#010101" mask="url(#mask-2)" points="-42.791382 27.364169 -42.791382 28.817169 -41.339382 28.817169 -39.888382 28.817169 -39.888382 27.364169 -41.339382 27.364169"></polyline>
        <polygon id="Fill-78" fill="#010101" mask="url(#mask-2)" points="-6.509878 28.816972 -5.058878 28.816972 -5.058878 27.363972 -6.509878 27.363972"></polygon>
        <polygon id="Fill-79" fill="#010101" mask="url(#mask-2)" points="-44.242878 30.266972 -42.791878 30.266972 -42.791878 28.815972 -44.242878 28.815972"></polygon>
        <polyline id="Fill-80" fill="#010101" mask="url(#mask-2)" points="-36.985565 28.816378 -38.437565 28.816378 -39.888565 28.816378 -39.888565 30.267378 -38.437565 30.267378 -38.437565 31.718378 -36.985565 31.718378 -36.985565 30.267378"></polyline>
        <polyline id="Fill-81" fill="#010101" mask="url(#mask-2)" points="-3.607055 30.266879 -2.155055 30.266879 -2.155055 28.815879 -3.607055 28.815879 -5.059055 28.815879 -5.059055 30.266879"></polyline>
        <polygon id="Fill-82" fill="#010101" mask="url(#mask-2)" points="-41.339847 31.718972 -39.887847 31.718972 -39.887847 30.266972 -41.339847 30.266972"></polygon>
        <polyline id="Fill-83" fill="#010101" mask="url(#mask-2)" points="-42.791351 31.718173 -44.242351 31.718173 -44.242351 30.266173 -45.694351 30.266173 -45.694351 28.816173 -44.242351 28.816173 -44.242351 27.364173 -44.242351 25.914173 -45.694351 25.914173 -45.694351 24.462173 -44.242351 24.462173 -44.242351 23.011173 -45.694351 23.011173 -45.694351 21.560173 -47.145351 21.560173 -47.145351 20.107173 -45.694351 20.107173 -44.242351 20.107173 -42.791351 20.107173 -42.791351 21.560173 -41.339351 21.560173 -41.339351 20.107173 -39.888351 20.107173 -39.888351 18.656173 -38.437351 18.656173 -38.437351 20.107173 -36.985351 20.107173 -36.985351 21.560173 -35.535351 21.560173 -35.535351 20.107173 -35.535351 18.656173 -35.535351 17.205173 -36.985351 17.205173 -38.437351 17.205173 -39.888351 17.205173 -41.339351 17.205173 -42.791351 17.205173 -44.242351 17.205173 -44.242351 18.656173 -45.694351 18.656173 -47.145351 18.656173 -48.596351 18.656173 -48.596351 20.107173 -48.596351 21.560173 -48.596351 23.011173 -48.596351 24.462173 -47.145351 24.462173 -47.145351 25.914173 -48.596351 25.914173 -48.596351 27.364173 -47.145351 27.364173 -47.145351 28.816173 -47.145351 30.266173 -48.596351 30.266173 -48.596351 31.718173 -48.596351 33.171173 -48.596351 34.622173 -47.145351 34.622173 -47.145351 33.171173 -45.694351 33.171173 -45.694351 34.622173 -44.242351 34.622173 -44.242351 33.171173 -42.791351 33.171173 -41.339351 33.171173 -41.339351 31.718173"></polyline>
        <polygon id="Fill-84" fill="#010101" mask="url(#mask-2)" points="-39.887847 33.169972 -38.436847 33.169972 -38.436847 31.716972 -39.887847 31.716972"></polygon>
        <polygon id="Fill-85" fill="#010101" mask="url(#mask-2)" points="-31.180847 33.171972 -29.729847 33.171972 -29.729847 31.718972 -31.180847 31.718972"></polygon>
        <polygon id="Fill-86" fill="#010101" mask="url(#mask-2)" points="-2.154847 33.169972 -0.703847 33.169972 -0.703847 31.716972 -2.154847 31.716972"></polygon>
        <polygon id="Fill-87" fill="#010101" mask="url(#mask-2)" points="-41.339847 34.622972 -39.887847 34.622972 -39.887847 33.169972 -41.339847 33.169972"></polygon>
        <polyline id="Fill-88" fill="#010101" mask="url(#mask-2)" points="-35.535156 33.170367 -35.535156 31.717367 -36.986156 31.717367 -36.986156 33.170367 -36.986156 34.623367 -35.535156 34.623367"></polyline>
        <polyline id="Fill-89" fill="#010101" mask="url(#mask-2)" points="-15.217361 34.622668 -15.217361 36.072668 -13.765361 36.072668 -13.765361 34.622668 -13.765361 33.169668 -15.217361 33.169668"></polyline>
        <polygon id="Fill-90" fill="#010101" mask="url(#mask-2)" points="-9.411862 34.622972 -7.960862 34.622972 -7.960862 33.169972 -9.411862 33.169972"></polygon>
        <polyline id="Fill-91" fill="#010101" mask="url(#mask-2)" points="-6.509353 34.622668 -5.058353 34.622668 -5.058353 36.072668 -3.606353 36.072668 -2.155353 36.072668 -2.155353 34.622668 -3.606353 34.622668 -3.606353 33.169668 -5.058353 33.169668 -5.058353 31.718668 -6.509353 31.718668 -7.961353 31.718668 -7.961353 33.169668 -6.509353 33.169668"></polyline>
        <polygon id="Fill-92" fill="#010101" mask="url(#mask-2)" points="-35.534862 36.071972 -34.082862 36.071972 -34.082862 34.621972 -35.534862 34.621972"></polygon>
        <polygon id="Fill-93" fill="#010101" mask="url(#mask-2)" points="-19.570862 36.072972 -18.119862 36.072972 -18.119862 34.622972 -19.570862 34.622972"></polygon>
        <polyline id="Fill-94" fill="#010101" mask="url(#mask-2)" points="-41.340072 36.072177 -42.792072 36.072177 -42.792072 37.523177 -41.340072 37.523177 -39.888072 37.523177 -39.888072 36.072177"></polyline>
        <polygon id="Fill-95" fill="#010101" mask="url(#mask-2)" points="-18.119862 37.522972 -16.668862 37.522972 -16.668862 36.071972 -18.119862 36.071972"></polygon>
        <polyline id="Fill-96" fill="#010101" mask="url(#mask-2)" points="-45.693557 38.975772 -45.693557 37.522772 -47.145557 37.522772 -48.596557 37.522772 -48.596557 38.975772 -47.145557 38.975772"></polyline>
        <polygon id="Fill-97" fill="#010101" mask="url(#mask-2)" points="-44.242862 38.974972 -42.791862 38.974972 -42.791862 37.521972 -44.242862 37.521972"></polygon>
        <polygon id="Fill-98" fill="#010101" mask="url(#mask-2)" points="-39.887862 38.974972 -38.436862 38.974972 -38.436862 37.521972 -39.887862 37.521972"></polygon>
        <polyline id="Fill-99" fill="#010101" mask="url(#mask-2)" points="-34.08348 38.975772 -32.63148 38.975772 -32.63148 40.426772 -32.63148 41.877772 -32.63148 43.328772 -31.18048 43.328772 -31.18048 41.877772 -29.73048 41.877772 -29.73048 40.426772 -31.18048 40.426772 -31.18048 38.975772 -29.73048 38.975772 -29.73048 37.522772 -29.73048 36.072772 -31.18048 36.072772 -31.18048 34.622772 -31.18048 33.170772 -32.63148 33.170772 -32.63148 34.622772 -32.63148 36.072772 -34.08348 36.072772 -34.08348 37.522772 -35.53548 37.522772 -35.53548 36.072772 -36.98648 36.072772 -36.98648 34.622772 -38.43748 34.622772 -39.88848 34.622772 -39.88848 36.072772 -38.43748 36.072772 -38.43748 37.522772 -36.98648 37.522772 -36.98648 38.975772 -36.98648 40.426772 -35.53548 40.426772 -35.53548 38.975772"></polyline>
        <polygon id="Fill-100" fill="#010101" mask="url(#mask-2)" points="-16.668862 38.974972 -15.216862 38.974972 -15.216862 37.521972 -16.668862 37.521972"></polygon>
        <polygon id="Fill-101" fill="#010101" mask="url(#mask-2)" points="-18.119862 40.425972 -16.668862 40.425972 -16.668862 38.974972 -18.119862 38.974972"></polygon>
        <path d="M-39.888656,43.328875 L-39.888656,44.780875 L-39.888656,46.231875 L-39.888656,47.682875 L-39.888656,49.133875 L-41.340656,49.133875 L-42.791656,49.133875 L-44.241656,49.133875 L-45.693656,49.133875 L-47.145656,49.133875 L-47.145656,47.682875 L-47.145656,46.231875 L-47.145656,44.780875 L-47.145656,43.328875 L-47.145656,41.877875 L-45.693656,41.877875 L-44.241656,41.877875 L-42.791656,41.877875 L-41.340656,41.877875 L-39.888656,41.877875 M-41.340656,40.425875 L-42.791656,40.425875 L-44.241656,40.425875 L-45.693656,40.425875 L-47.145656,40.425875 L-48.596656,40.425875 L-48.596656,41.877875 L-48.596656,43.328875 L-48.596656,44.780875 L-48.596656,46.231875 L-48.596656,47.682875 L-48.596656,49.133875 L-48.596656,50.584875 L-47.145656,50.584875 L-45.693656,50.584875 L-44.241656,50.584875 L-42.791656,50.584875 L-41.340656,50.584875 L-39.888656,50.584875 L-38.437656,50.584875 L-38.437656,49.133875 L-38.437656,47.682875 L-38.437656,46.231875 L-38.437656,44.780875 L-38.437656,43.328875 L-38.437656,41.877875 L-38.437656,40.425875 L-39.888656,40.425875" id="Fill-102" fill="#010101" mask="url(#mask-2)"></path>
        <polygon id="Fill-103" fill="#010101" mask="url(#mask-2)" points="-10.863862 41.877972 -9.411862 41.877972 -9.411862 40.425972 -10.863862 40.425972"></polygon>
        <polyline id="Fill-104" fill="#010101" mask="url(#mask-2)" points="-18.119674 41.877566 -18.119674 40.425566 -19.571674 40.425566 -19.571674 41.877566 -21.022674 41.877566 -21.022674 40.425566 -22.473674 40.425566 -23.924674 40.425566 -23.924674 41.877566 -23.924674 43.328566 -25.375674 43.328566 -25.375674 44.780566 -25.375674 46.231566 -23.924674 46.231566 -23.924674 44.780566 -22.473674 44.780566 -22.473674 43.328566 -21.022674 43.328566 -19.571674 43.328566 -19.571674 44.780566 -19.571674 46.231566 -18.119674 46.231566 -18.119674 44.780566 -18.119674 43.328566 -16.668674 43.328566 -16.668674 41.877566"></polyline>
        <polyline id="Fill-105" fill="#010101" mask="url(#mask-2)" points="-44.242278 43.328875 -45.694278 43.328875 -45.694278 44.780875 -45.694278 46.231875 -45.694278 47.682875 -44.242278 47.682875 -42.791278 47.682875 -41.339278 47.682875 -41.339278 46.231875 -41.339278 44.780875 -41.339278 43.328875 -42.791278 43.328875"></polyline>
        <polyline id="Fill-106" fill="#010101" mask="url(#mask-2)" points="-32.631575 44.780169 -32.631575 43.328169 -34.083575 43.328169 -34.083575 41.877169 -34.083575 40.426169 -35.534575 40.426169 -35.534575 41.877169 -36.985575 41.877169 -36.985575 43.328169 -36.985575 44.780169 -35.534575 44.780169 -35.534575 46.232169 -34.083575 46.232169 -34.083575 44.780169"></polyline>
        <polygon id="Fill-107" fill="#010101" mask="url(#mask-2)" points="-31.180861 44.780972 -29.729861 44.780972 -29.729861 43.328972 -31.180861 43.328972"></polygon>
        <polyline id="Fill-108" fill="#010101" mask="url(#mask-2)" points="-26.827162 43.328875 -28.279162 43.328875 -28.279162 44.780875 -28.279162 46.231875 -26.827162 46.231875 -26.827162 44.780875"></polyline>
        <polygon id="Fill-109" fill="#010101" mask="url(#mask-2)" points="-16.668861 44.780972 -15.216861 44.780972 -15.216861 43.328972 -16.668861 43.328972"></polygon>
        <path d="M-9.41194,43.328875 L-10.86394,43.328875 L-12.31494,43.328875 L-12.31494,41.877875 L-12.31494,40.425875 L-12.31494,38.975875 L-10.86394,38.975875 L-9.41194,38.975875 L-7.96094,38.975875 L-7.96094,40.425875 L-7.96094,41.877875 L-7.96094,43.328875 M-3.60694,44.780875 L-5.05894,44.780875 L-5.05894,43.328875 L-6.50894,43.328875 L-6.50894,41.877875 L-6.50894,40.425875 L-5.05894,40.425875 L-5.05894,41.877875 L-3.60694,41.877875 L-3.60694,43.328875 L-2.15494,43.328875 L-2.15494,41.877875 L-2.15494,40.425875 L-2.15494,38.975875 L-2.15494,37.523875 L-3.60694,37.523875 L-3.60694,38.975875 L-5.05894,38.975875 L-5.05894,37.523875 L-6.50894,37.523875 L-7.96094,37.523875 L-9.41194,37.523875 L-10.86394,37.523875 L-10.86394,36.071875 L-10.86394,34.622875 L-10.86394,33.170875 L-12.31494,33.170875 L-12.31494,34.622875 L-12.31494,36.071875 L-12.31494,37.523875 L-13.76494,37.523875 L-13.76494,38.975875 L-15.21694,38.975875 L-15.21694,40.425875 L-13.76494,40.425875 L-13.76494,41.877875 L-13.76494,43.328875 L-13.76494,44.780875 L-15.21694,44.780875 L-15.21694,46.231875 L-13.76494,46.231875 L-12.31494,46.231875 L-12.31494,44.780875 L-10.86394,44.780875 L-10.86394,46.231875 L-10.86394,47.682875 L-12.31494,47.682875 L-13.76494,47.682875 L-15.21694,47.682875 L-15.21694,49.133875 L-16.66894,49.133875 L-16.66894,50.584875 L-15.21694,50.584875 L-13.76494,50.584875 L-12.31494,50.584875 L-10.86394,50.584875 L-10.86394,49.133875 L-9.41194,49.133875 L-9.41194,50.584875 L-7.96094,50.584875 L-6.50894,50.584875 L-6.50894,49.133875 L-7.96094,49.133875 L-7.96094,47.682875 L-9.41194,47.682875 L-9.41194,46.231875 L-9.41194,44.780875 L-7.96094,44.780875 L-7.96094,46.231875 L-7.96094,47.682875 L-6.50894,47.682875 L-6.50894,46.231875 L-5.05894,46.231875 L-5.05894,47.682875 L-3.60694,47.682875 L-2.15494,47.682875 L-2.15494,46.231875 L-0.70394,46.231875 L-0.70394,44.780875 L-2.15494,44.780875" id="Fill-110" fill="#010101" mask="url(#mask-2)"></path>
        <polyline id="Fill-111" fill="#010101" mask="url(#mask-2)" points="-29.72975 46.23157 -31.18075 46.23157 -31.18075 44.77957 -32.63175 44.77957 -32.63175 46.23157 -34.08275 46.23157 -34.08275 47.68357 -34.08275 49.13457 -34.08275 50.58457 -32.63175 50.58457 -32.63175 49.13457 -32.63175 47.68357 -31.18075 47.68357 -29.72975 47.68357 -28.27875 47.68357 -28.27875 46.23157"></polyline>
        <polygon id="Fill-112" fill="#010101" mask="url(#mask-2)" points="-26.826861 47.682972 -25.374861 47.682972 -25.374861 46.231972 -26.826861 46.231972"></polygon>
        <polyline id="Fill-113" fill="#010101" mask="url(#mask-2)" points="-16.669142 46.23157 -18.120142 46.23157 -18.120142 47.68357 -18.120142 49.13457 -16.669142 49.13457 -16.669142 47.68357"></polyline>
        <polyline id="Fill-114" fill="#010101" mask="url(#mask-2)" points="-36.985548 49.134173 -36.985548 50.585173 -35.534548 50.585173 -35.534548 49.134173 -35.534548 47.682173 -36.985548 47.682173"></polyline>
        <polygon id="Fill-115" fill="#010101" mask="url(#mask-2)" points="-28.277861 49.133972 -26.825861 49.133972 -26.825861 47.681972 -28.277861 47.681972"></polygon>
        <polyline id="Fill-116" fill="#010101" mask="url(#mask-2)" points="-19.570845 47.682879 -21.022845 47.682879 -21.022845 49.134879 -22.473845 49.134879 -22.473845 47.682879 -23.924845 47.682879 -25.375845 47.682879 -25.375845 49.134879 -23.924845 49.134879 -23.924845 50.584879 -22.473845 50.584879 -21.022845 50.584879 -19.570845 50.584879 -18.118845 50.584879 -18.118845 49.134879 -19.570845 49.134879"></polyline>
        <polygon id="Fill-117" fill="#010101" mask="url(#mask-2)" points="-6.509861 49.133972 -5.058861 49.133972 -5.058861 47.681972 -6.509861 47.681972"></polygon>
        <polyline id="Fill-118" fill="#010101" mask="url(#mask-2)" points="-31.180647 49.134173 -31.180647 50.585173 -29.729647 50.585173 -28.277647 50.585173 -28.277647 49.134173 -29.729647 49.134173"></polyline>
        <polygon id="Fill-119" fill="#010101" mask="url(#mask-2)" points="-26.826861 50.584972 -25.374861 50.584972 -25.374861 49.133972 -26.826861 49.133972"></polygon>
        <polygon id="Fill-120" fill="#010101" mask="url(#mask-2)" points="-2.154861 50.584972 -0.703861 50.584972 -0.703861 49.133972 -2.154861 49.133972"></polygon>
    </g>
</svg>
