<?xml version="1.0" encoding="UTF-8" standalone="no"?><!DOCTYPE svg PUBLIC "-//W3C//DTD SVG 1.1//EN" "http://www.w3.org/Graphics/SVG/1.1/DTD/svg11.dtd">
<svg width="27px" height="30px" viewBox="27 881 27 30" version="1.1" xmlns="http://www.w3.org/2000/svg" xmlns:xlink="http://www.w3.org/1999/xlink">
    <!-- Generator: Sketch 3.8.3 (29802) - http://www.bohemiancoding.com/sketch -->
    <desc>Created with Sketch.</desc>
    <defs>
        <polygon id="path-1" points="13.4575553 28.426971 26.914955 28.426971 26.914955 0.623971 13.4575553 0.623971 0.000155626341 0.623971 0.000155626341 28.426971 13.4575553 28.426971"></polygon>
    </defs>
    <g id="Group-139" stroke="none" stroke-width="1" fill="none" fill-rule="evenodd" transform="translate(27.000000, 881.376000)">
        <mask id="mask-2" fill="white">
            <use xlink:href="#path-1"></use>
        </mask>
        <g id="Clip-138"></g>
        <path d="M17.160554,21.999971 L17.160554,24.428971 L19.108554,22.484971 L19.108554,21.999971 L17.160554,21.999971 Z M26.740554,20.017971 L18.978554,20.017971 L17.242554,21.876971 L26.741554,21.876971 L26.740554,20.017971 Z M7.760554,21.999971 L7.760554,22.484971 L9.708554,24.428971 L9.708554,21.999971 L7.760554,21.999971 Z M0.127554,21.876971 L9.625554,21.876971 L7.889554,20.017971 L0.128554,20.017971 L0.127554,21.876971 Z M9.834554,24.510971 L17.032554,24.510971 L17.032554,22.652971 L9.834554,22.652971 L9.834554,24.510971 Z M15.320554,3.599971 C15.144554,3.463971 14.978554,3.376971 14.895554,3.336971 L14.284554,3.361971 C14.295554,3.659971 14.297554,4.347971 13.709554,4.548971 C13.546554,4.604971 13.524554,4.755971 13.520554,4.832971 L14.454554,4.832971 C14.476554,4.716971 14.768554,4.436971 14.854554,4.427971 C14.847554,4.323971 15.090554,3.833971 15.320554,3.599971 L15.320554,3.599971 Z M11.774554,3.446971 C11.708554,3.305971 11.628554,3.220971 11.598554,3.190971 C11.568554,3.160971 11.368554,2.973971 11.111554,2.733971 L10.227554,3.295971 L10.214554,3.903971 C10.214554,3.989971 10.227554,4.436971 10.808554,4.393971 L10.855554,3.661971 L11.774554,3.446971 Z M14.665554,1.026971 C14.557554,1.026971 14.471554,1.025971 14.228554,1.025971 C14.017554,1.184971 13.143554,1.335971 12.424554,0.926971 C11.576554,0.982971 11.275554,1.051971 11.159554,0.840971 C11.042554,0.939971 10.702554,0.943971 10.547554,0.939971 C10.431554,1.055971 10.453554,1.098971 9.829554,1.089971 C9.781554,1.227971 9.820554,1.322971 9.893554,1.412971 C9.966554,1.503971 11.619554,3.031971 11.710554,3.121971 C11.800554,3.212971 12.368554,3.918971 11.538554,4.615971 C11.449554,4.689971 11.404554,4.662971 11.387554,4.830971 L12.317554,4.830971 L12.760554,4.245971 L12.760554,3.306971 L14.947554,3.212971 C15.098554,3.285971 16.243554,3.901971 15.662554,4.438971 C15.433554,4.650971 15.347554,4.658971 15.313554,4.830971 L16.260554,4.830971 L16.665554,3.935971 C16.591554,3.935971 16.557554,3.870971 16.553554,3.831971 L16.553554,3.147971 C16.566554,3.095971 16.566554,2.988971 16.665554,2.975971 C16.657554,2.849971 16.061554,1.029971 14.665554,1.026971 L14.665554,1.026971 Z M3.471554,15.058971 L3.471554,15.887971 C3.471554,16.061971 3.240554,16.083971 3.240554,16.083971 L4.770554,18.928971 L4.775554,18.928971 C4.891554,18.928971 4.947554,19.057971 4.947554,19.057971 L5.259554,19.606971 L5.451554,19.606971 L5.085554,18.928971 L3.929554,16.692971 L4.557554,13.971971 L2.826554,11.384971 L2.825554,11.373971 C2.298554,11.832971 2.179554,12.307971 2.174554,13.211971 L3.471554,15.058971 Z M0.130554,18.926971 C0.294554,18.926971 0.302554,19.055971 0.302554,19.055971 L0.302554,19.604971 L0.442554,19.604971 L0.442554,16.489971 L2.044554,14.686971 C2.044554,14.686971 2.038554,14.578971 2.044554,13.097971 C2.048554,11.962971 2.279554,11.703971 2.749554,11.272971 L4.222554,9.908971 L4.239554,9.893971 L4.446554,9.701971 L4.577554,9.893971 L4.587554,9.908971 L6.073554,12.073971 L6.852554,13.760971 L6.854554,13.760971 C6.970554,13.760971 7.026554,13.889971 7.026554,13.889971 L7.325554,14.438971 L7.465554,14.438971 L7.166554,13.760971 L6.357554,11.892971 C6.357554,11.892971 5.714554,10.708971 5.325554,9.908971 C5.322554,9.902971 5.319554,9.897971 5.317554,9.893971 C5.121554,9.511971 4.977554,9.226971 4.982554,9.219971 L5.100554,9.105971 L5.100554,8.224971 C5.100554,7.725971 5.003554,7.450971 4.882554,7.342971 C4.951554,7.342971 4.996554,7.350971 5.044554,7.359971 C5.014554,7.323971 4.889554,7.105971 4.762554,6.961971 C4.850554,6.892971 4.906554,6.853971 4.906554,6.849971 C4.774554,6.754971 3.564554,5.979971 3.529554,5.376971 C3.520554,5.222971 3.585554,5.078971 3.761554,4.953971 C3.813554,5.020971 3.931554,5.199971 4.073554,5.376971 C4.248554,5.593971 4.461554,5.807971 4.637554,5.807971 L4.637554,4.871971 L5.498554,4.871971 L5.632554,4.591971 C5.437554,4.591971 5.400554,4.592971 5.227554,4.593971 C5.032554,4.594971 5.025554,4.314971 5.228554,4.314971 C5.403554,4.314971 5.503554,4.310971 5.761554,4.314971 L5.916554,3.971971 L5.640554,3.605971 C5.240554,3.565971 4.998554,3.561971 4.755554,3.507971 C4.125554,3.367971 4.288554,2.824971 4.749554,2.765971 C5.025554,2.730971 5.303554,2.737971 5.702554,2.663971 C6.540554,2.508971 6.761554,1.813971 6.460554,0.911971 C6.435554,0.835971 6.303554,0.771971 6.182554,0.900971 C6.252554,1.189971 6.275554,1.328971 6.289554,1.466971 C6.311554,1.674971 5.952554,1.780971 5.890554,1.483971 L5.795554,1.021971 C5.757554,0.838971 5.610554,0.771971 5.471554,0.929971 C5.505554,0.992971 5.506554,1.027971 5.507554,1.033971 L5.594554,1.462971 C5.640554,1.698971 5.250554,1.759971 5.192554,1.490971 L5.097554,1.017971 C5.060554,0.833971 4.913554,0.767971 4.773554,0.924971 C4.808554,0.988971 4.808554,1.023971 4.810554,1.029971 C4.818554,1.072971 4.874554,1.335971 4.876554,1.352971 C4.930554,1.785971 4.201554,1.783971 4.237554,1.354971 C4.239554,1.329971 4.281554,1.074971 4.298554,1.029971 C4.300554,1.023971 4.300554,0.988971 4.335554,0.924971 C4.196554,0.767971 4.048554,0.833971 4.011554,1.017971 L3.938554,1.395971 C3.932554,1.458971 3.940554,1.550971 3.983554,1.630971 C4.032554,1.722971 4.292554,1.944971 4.325554,2.090971 C4.405554,2.442971 4.077554,2.783971 3.727554,2.783971 C3.130554,2.783971 3.011554,2.162971 3.189554,1.896971 C3.197554,1.883971 3.365554,1.703971 3.378554,1.651971 C3.391554,1.599971 3.370554,1.506971 3.366554,1.489971 L3.270554,1.021971 C3.233554,0.838971 3.085554,0.771971 2.946554,0.929971 C2.981554,0.992971 2.981554,1.027971 2.983554,1.033971 L3.070554,1.462971 C3.115554,1.698971 2.726554,1.759971 2.667554,1.490971 L2.573554,1.017971 C2.535554,0.833971 2.388554,0.767971 2.249554,0.924971 C2.283554,0.988971 2.284554,1.023971 2.285554,1.029971 L2.415554,1.660971 C2.487554,1.999971 1.956554,2.102971 1.872554,1.704971 L1.729554,1.013971 C1.692554,0.829971 1.544554,0.762971 1.405554,0.920971 C1.439554,0.983971 1.440554,1.018971 1.441554,1.025971 L1.529554,1.454971 C1.574554,1.689971 1.185554,1.751971 1.126554,1.481971 L1.031554,1.008971 C0.994554,0.825971 0.847554,0.758971 0.708554,0.916971 C0.742554,0.979971 0.743554,1.014971 0.744554,1.020971 L0.831554,1.449971 C0.877554,1.685971 0.466554,1.738971 0.403554,1.469971 C0.337554,1.188971 0.314554,0.935971 0.270554,0.889971 C0.192554,0.808971 0.037554,0.814971 0.001554,0.902971 C-0.012446,0.948971 0.084554,1.159971 0.031554,1.483971 C0.015554,1.582971 0.010554,1.724971 0.025554,1.787971 C0.185554,2.451971 0.675554,2.641971 1.187554,2.676971 C1.674554,2.708971 2.194554,2.753971 2.715554,2.775971 C3.227554,2.796971 3.214554,3.502971 2.737554,3.502971 L1.919554,3.502971 L2.327554,4.075971 C2.168554,4.289971 1.700554,4.784971 1.332554,5.376971 C1.154554,5.661971 1.000554,5.970971 0.916554,6.281971 L1.127554,6.281971 C1.013554,6.408971 0.933554,6.638971 0.922554,6.827971 L1.109554,6.827971 C1.032554,6.952971 0.946554,7.258971 0.946554,7.422971 C1.256554,7.411971 1.320554,7.609971 1.325554,7.699971 L1.325554,8.427971 C1.265554,8.584971 0.978554,9.274971 0.725554,9.903971 C0.723554,9.908971 0.728554,9.898971 0.725554,9.903971 C0.570554,10.265971 0.440554,10.620971 0.364554,10.833971 C0.145554,11.453971 0.081554,12.305971 0.098554,12.701971 C0.545554,12.701971 0.541554,13.039971 0.541554,13.039971 L0.541554,15.299971 C0.541554,15.624971 0.132554,15.844971 0.132554,15.844971 L0.132554,18.926971 L0.130554,18.926971 Z M7.465554,6.515971 L5.228554,8.154971 L5.229554,8.990971 L7.722554,6.795971 L10.472554,6.795971 L10.582554,6.515971 L7.465554,6.515971 Z M24.698554,13.217971 C24.692554,12.298971 24.536554,11.787971 24.049554,11.374971 L24.046554,11.373971 L22.310554,13.971971 L22.913554,16.692971 L21.757554,18.928971 L21.391554,19.606971 L21.609554,19.606971 L21.921554,19.057971 C21.921554,19.057971 21.977554,18.928971 22.093554,18.928971 L22.097554,18.928971 L23.627554,16.083971 C23.627554,16.083971 23.397554,16.061971 23.397554,15.887971 L23.397554,15.058971 L24.689554,13.213971 L24.698554,13.217971 Z M24.887554,1.097971 C25.050554,1.195971 25.746554,1.944971 25.031554,2.757971 C24.804554,3.015971 24.465554,3.067971 24.277554,3.072971 C24.314554,3.010971 24.364554,2.897971 24.383554,2.726971 L24.837554,2.406971 C24.990554,2.298971 24.992554,2.136971 24.792554,2.072971 C24.748554,2.129971 24.716554,2.144971 24.711554,2.147971 L24.463554,2.322971 C24.303554,2.430971 24.073554,2.207971 24.206554,2.051971 L24.522554,1.678971 C24.643554,1.536971 24.604554,1.378971 24.393554,1.367971 C24.365554,1.433971 24.338554,1.455971 24.334554,1.460971 L23.974554,1.884971 C23.804554,2.080971 23.472554,1.981971 23.579554,1.749971 L23.827554,1.200971 C23.905554,1.029971 23.825554,0.889971 23.619554,0.935971 C23.610554,1.006971 23.590554,1.035971 23.588554,1.041971 L23.318554,1.635971 C23.271554,1.723971 23.160554,1.735971 23.109554,1.717971 C23.056554,1.694971 23.006554,1.675971 22.943554,1.648971 L23.025554,0.922971 C23.045554,0.736971 22.925554,0.627971 22.744554,0.735971 C22.758554,0.805971 22.748554,0.839971 22.747554,0.845971 L22.689554,1.363971 C22.671554,1.461971 22.436554,1.429971 22.410554,1.418971 C22.317554,1.371971 22.234554,1.315971 22.213554,1.249971 L22.113554,0.859971 C22.066554,0.678971 21.915554,0.620971 21.784554,0.785971 C21.823554,0.846971 21.825554,0.881971 21.827554,0.887971 L21.954554,1.372971 C22.036554,1.618971 22.362554,1.712971 22.817554,1.903971 C22.925554,1.949971 23.568554,2.250971 23.821554,2.366971 C24.212554,2.544971 24.084554,3.085971 23.718554,3.080971 C23.369554,3.076971 23.309554,2.702971 23.339554,2.534971 C23.171554,2.529971 22.913554,2.646971 23.163554,3.076971 C23.008554,3.076971 22.753554,2.947971 22.766554,2.534971 C22.629554,2.529971 22.587554,2.568971 22.536554,2.646971 C22.484554,2.726971 22.376554,3.382971 23.443554,3.386971 L23.165554,3.642971 L21.974554,3.730971 L21.966554,3.868971 L22.129554,4.212971 L22.551554,4.212971 C22.753554,4.212971 22.749554,4.505971 22.547554,4.505971 L22.254554,4.505971 L22.366554,4.776971 L23.249554,4.776971 C23.490554,4.544971 23.830554,4.598971 23.881554,4.903971 C23.947554,5.291971 23.522554,6.038971 22.652554,6.038971 C22.715554,6.115971 22.794554,6.175971 22.844554,6.212971 C22.702554,6.307971 22.514554,6.406971 22.342554,6.446971 C22.416554,6.541971 22.426554,6.552971 22.506554,6.621971 C22.349554,6.737971 22.162554,6.860971 22.052554,6.877971 C22.106554,6.948971 22.135554,6.994971 22.171554,7.020971 C21.846554,7.279971 21.766554,7.725971 21.768554,8.224971 C21.770554,8.730971 21.770554,9.038971 21.770554,9.109971 L21.886554,9.219971 C21.899554,9.240971 20.511554,11.892971 20.511554,11.892971 L19.702554,13.760971 L19.402554,14.438971 L19.542554,14.438971 L19.841554,13.889971 C19.841554,13.889971 19.897554,13.760971 20.014554,13.760971 L20.016554,13.760971 L20.795554,12.073971 L22.422554,9.701971 L24.058554,11.216971 C24.423554,11.541971 24.824554,11.794971 24.824554,13.097971 L24.824554,14.686971 L26.425554,16.489971 L26.425554,19.604971 L26.565554,19.604971 L26.565554,19.055971 C26.565554,19.055971 26.574554,18.926971 26.738554,18.926971 L26.736554,18.926971 L26.736554,15.844971 C26.736554,15.844971 26.327554,15.594971 26.327554,15.353971 L26.327554,13.039971 C26.327554,13.039971 26.331554,12.701971 26.778554,12.701971 C26.787554,11.771971 26.799554,11.431971 25.556554,9.826971 C24.166554,8.031971 24.476554,8.190971 25.061554,5.672971 C25.275554,4.752971 25.233554,4.488971 25.117554,4.174971 L25.603554,3.623971 L24.747554,3.623971 L24.527554,3.352971 C24.872554,3.283971 25.125554,3.065971 25.125554,3.065971 L26.675554,3.065971 C26.862554,3.065971 26.957554,2.934971 26.830554,2.766971 C26.761554,2.788971 26.727554,2.781971 26.720554,2.781971 L25.697554,2.780971 C25.498554,2.778971 25.491554,2.603971 25.508554,2.573971 C25.513554,2.561971 25.518554,2.548971 25.524554,2.535971 L26.752554,2.156971 C26.930554,2.100971 26.982554,1.947971 26.810554,1.825971 C26.751554,1.866971 26.716554,1.870971 26.710554,1.872971 L25.848554,2.137971 C25.679554,2.185971 25.639554,1.993971 25.638554,1.965971 C25.637554,1.945971 25.635554,1.925971 25.633554,1.906971 L26.484554,1.326971 C26.639554,1.220971 26.644554,1.059971 26.444554,0.991971 C26.399554,1.048971 26.367554,1.061971 26.362554,1.065971 L25.794554,1.452971 C25.566554,1.605971 25.395554,1.336971 25.546554,1.177971 L25.757554,0.937971 C25.880554,0.796971 25.844554,0.638971 25.634554,0.623971 C25.605554,0.689971 25.577554,0.711971 25.573554,0.716971 L25.386554,0.927971 C25.316554,0.997971 25.231554,0.999971 25.176554,0.953971 C25.167554,0.945971 25.156554,0.935971 25.143554,0.923971 L24.853554,0.710971 C24.848554,0.706971 24.817554,0.689971 24.778554,0.628971 C24.573554,0.678971 24.563554,0.839971 24.708554,0.958971 L24.888554,1.099971 L24.887554,1.097971 Z M21.642554,8.156971 L19.402554,6.515971 L16.286554,6.515971 L16.396554,6.795971 L19.142554,6.795971 L21.643554,8.998971 L21.642554,8.156971 Z M16.542554,5.883971 C16.742554,5.883971 16.904554,5.721971 16.904554,5.521971 C16.904554,5.322971 16.742554,5.160971 16.542554,5.160971 L10.240554,5.160971 C10.040554,5.160971 9.878554,5.322971 9.878554,5.521971 C9.878554,5.721971 10.040554,5.883971 10.240554,5.883971 L16.542554,5.883971 Z M12.288554,5.744971 L12.080554,5.296971 L13.182554,5.296971 L13.390554,5.744971 L12.288554,5.744971 Z M14.561554,5.744971 L14.353554,5.296971 L15.489554,5.296971 L15.698554,5.744971 L14.561554,5.744971 Z M10.875554,5.296971 L11.082554,5.744971 L10.240554,5.745971 C10.116554,5.745971 10.016554,5.645971 10.016554,5.521971 C10.016554,5.398971 10.116554,5.298971 10.240554,5.298971 L10.875554,5.296971 Z M9.276554,18.900971 C8.191554,18.091971 7.760554,16.696971 7.760554,15.921971 L7.760554,6.933971 L19.107554,6.933971 L19.107554,15.921971 C19.107554,16.696971 18.677554,18.091971 17.592554,18.900971 C16.508554,19.709971 13.434554,21.410971 13.434554,21.410971 C13.434554,21.410971 10.360554,19.709971 9.276554,18.900971 L9.276554,18.900971 Z M12.026554,14.823971 L11.701554,15.323971 L11.854554,15.410971 L11.156554,15.817971 L11.194554,15.839971 L13.238554,16.995971 L13.296554,17.028971 L13.296554,14.578971 L13.296554,14.576971 L12.601554,14.978971 L12.601554,14.801971 L12.105554,14.822971 L12.026554,14.823971 Z M14.748554,14.820971 L14.284554,14.797971 L14.284554,14.974971 L13.571554,14.576971 L13.571554,14.578971 L13.571554,17.028971 L13.630554,16.995971 L15.673554,15.839971 L15.746554,15.798971 L15.052554,15.406971 L15.206554,15.318971 L14.896554,14.827971 L14.748554,14.820971 Z M13.571554,19.743971 L13.571554,17.482971 L15.881554,16.188971 L15.883554,16.188971 L15.882554,16.986971 L16.032554,16.904971 L16.363554,17.423971 L16.707554,16.913971 L16.859554,17.003971 L16.859554,16.619971 L16.859554,16.570971 L17.768554,17.082971 L17.771554,16.905971 L18.386554,16.883971 L18.121554,16.327971 L18.276554,16.242971 L17.390554,15.741971 L18.255554,15.252971 L18.103554,15.163971 L18.384554,14.616971 L17.770554,14.575971 L17.772554,14.398971 L16.876554,14.906971 L16.876554,13.868971 L16.723554,13.956971 L16.384554,13.443971 L16.047554,13.958971 L15.894554,13.870971 L15.893554,14.813971 L15.894554,14.889971 L15.548554,14.696971 L15.538554,14.883971 L15.031554,14.849971 L14.961554,14.846971 L14.624554,14.351971 L14.777554,14.263971 L14.477554,14.092971 L14.427554,14.061971 L15.295554,13.559971 L15.144554,13.469971 L15.426554,12.922971 L14.812554,12.880971 L14.814554,12.703971 L13.925554,13.218971 L13.925554,12.189971 L13.772554,12.277971 L13.434554,11.763971 L13.096554,12.277971 L12.943554,12.189971 L12.943554,13.222971 L12.042554,12.716971 L12.044554,12.893971 L11.430554,12.935971 L11.713554,13.482971 L11.562554,13.572971 L12.449554,14.071971 L12.408554,14.096971 L12.108554,14.267971 L12.261554,14.355971 L11.954554,14.846971 L11.870554,14.852971 L11.369554,14.887971 L11.359554,14.701971 L11.026554,14.897971 L11.026554,14.830971 L11.025554,13.887971 L10.872554,13.975971 L10.535554,13.460971 L10.196554,13.973971 L10.043554,13.885971 L10.043554,14.923971 L9.147554,14.415971 L9.149554,14.592971 L8.535554,14.633971 L8.817554,15.180971 L8.664554,15.270971 L9.534554,15.761971 L8.646554,16.266971 L8.800554,16.351971 L8.535554,16.907971 L9.150554,16.929971 L9.154554,17.105971 L10.060554,16.587971 L10.061554,16.636971 L10.060554,17.020971 L10.212554,16.930971 L10.556554,17.440971 L10.888554,16.921971 L11.037554,17.003971 L11.036554,16.205971 L11.038554,16.206971 L13.296554,17.482971 L13.296554,17.540971 L13.296554,19.743971 L13.571554,19.743971 Z M7.898554,8.418971 L12.943554,8.418971 L12.943554,7.071971 L7.898554,7.071971 L7.898554,8.418971 Z M13.925554,8.418971 L18.970554,8.418971 L18.970554,7.071971 L13.925554,7.071971 L13.925554,8.418971 Z M13.925554,10.790971 L18.970554,10.790971 L18.970554,9.442971 L13.925554,9.442971 L13.925554,10.790971 Z M7.898554,10.790971 L12.943554,10.790971 L12.943554,9.442971 L7.898554,9.442971 L7.898554,10.790971 Z M8.907554,28.107971 C9.462554,28.107971 9.700554,27.621971 9.700554,27.117971 C9.700554,26.602971 9.438554,26.123971 8.907554,26.127971 C8.377554,26.123971 8.115554,26.602971 8.115554,27.117971 C8.115554,27.621971 8.353554,28.107971 8.907554,28.107971 L8.907554,28.107971 Z M8.907554,25.808971 C9.638554,25.808971 10.065554,26.366971 10.065554,27.117971 C10.065554,27.886971 9.641554,28.426971 8.907554,28.426971 C8.174554,28.426971 7.750554,27.886971 7.750554,27.117971 C7.750554,26.366971 8.177554,25.808971 8.907554,25.808971 L8.907554,25.808971 Z M16.810554,26.287971 C16.925554,26.287971 17.019554,26.193971 17.019554,26.078971 C17.019554,25.963971 16.925554,25.869971 16.810554,25.869971 C16.694554,25.869971 16.601554,25.963971 16.601554,26.078971 C16.601554,26.193971 16.694554,26.287971 16.810554,26.287971 L16.810554,26.287971 Z M16.640554,28.382971 L16.981554,28.382971 L16.981554,26.533971 L16.640554,26.533971 L16.640554,28.382971 Z M13.243554,26.533971 L12.769554,26.533971 L12.769554,25.997971 L12.428554,26.105971 L12.428554,26.531971 L12.149554,26.810971 L12.428554,26.810971 L12.428554,27.889971 C12.428554,28.259971 12.645554,28.426971 12.997554,28.426971 C13.099554,28.426971 13.198554,28.400971 13.272554,28.379971 L13.272554,28.094971 C13.222554,28.123971 13.150554,28.150971 13.055554,28.150971 C12.899554,28.150971 12.769554,28.034971 12.769554,27.820971 L12.769554,26.809971 L13.243554,26.809971 L13.243554,26.533971 Z M18.231554,28.150971 C18.610554,28.150971 18.779554,27.788971 18.779554,27.458971 C18.779554,27.106971 18.576554,26.765971 18.231554,26.765971 C17.883554,26.765971 17.680554,27.106971 17.680554,27.458971 C17.680554,27.788971 17.849554,28.150971 18.231554,28.150971 L18.231554,28.150971 Z M18.231554,26.490971 C18.765554,26.490971 19.123554,26.896971 19.123554,27.458971 C19.123554,27.987971 18.758554,28.426971 18.231554,28.426971 C17.701554,28.426971 17.335554,27.987971 17.335554,27.458971 C17.335554,26.896971 17.694554,26.490971 18.231554,26.490971 L18.231554,26.490971 Z M16.329554,26.832971 C16.283554,26.820971 16.237554,26.817971 16.195554,26.817971 C15.891554,26.817971 15.691554,27.107971 15.691554,27.571971 L15.691554,28.382971 L15.351554,28.382971 L15.351554,26.548971 L15.670554,26.548971 L15.670554,26.849971 L15.677554,26.849971 C15.767554,26.657971 15.963554,26.519971 16.159554,26.519971 C16.234554,26.519971 16.281554,26.525971 16.329554,26.534971 L16.329554,26.832971 Z M14.633554,27.501971 C14.564554,27.501971 14.495554,27.494971 14.426554,27.494971 C14.251554,27.494971 13.817554,27.523971 13.817554,27.849971 C13.817554,28.045971 13.996554,28.150971 14.144554,28.150971 C14.464554,28.150971 14.633554,27.940971 14.633554,27.664971 L14.633554,27.501971 Z M13.672554,26.664971 C13.834554,26.562971 14.027554,26.490971 14.251554,26.490971 C14.753554,26.490971 14.957554,26.751971 14.957554,27.255971 L14.957554,28.020971 C14.957554,28.230971 14.964554,28.328971 14.971554,28.382971 L14.667554,28.382971 L14.667554,28.143971 L14.660554,28.143971 C14.585554,28.256971 14.412554,28.426971 14.116554,28.426971 C13.737554,28.426971 13.472554,28.252971 13.472554,27.849971 C13.472554,27.385971 13.954554,27.240971 14.288554,27.240971 C14.416554,27.240971 14.506554,27.240971 14.633554,27.247971 C14.633554,26.929971 14.523554,26.765971 14.199554,26.765971 C14.016554,26.765971 13.820554,26.838971 13.689554,26.954971 L13.672554,26.664971 Z M10.421554,26.533971 L10.734554,26.533971 L10.734554,26.827971 L10.741554,26.827971 C10.837554,26.617971 11.072554,26.490971 11.316554,26.490971 C11.771554,26.490971 11.974554,26.787971 11.974554,27.284971 L11.974554,28.382971 L11.650554,28.382971 L11.650554,27.425971 C11.650554,26.994971 11.561554,26.783971 11.278554,26.765971 C10.910554,26.765971 10.744554,27.077971 10.744554,27.527971 L10.744554,28.382971 L10.421554,28.382971 L10.421554,26.533971 L10.421554,26.533971 Z" id="Fill-137" fill="#000000" mask="url(#mask-2)"></path>
    </g>
</svg>
