<?xml version="1.0" encoding="UTF-8" standalone="no"?><!DOCTYPE svg PUBLIC "-//W3C//DTD SVG 1.1//EN" "http://www.w3.org/Graphics/SVG/1.1/DTD/svg11.dtd"><svg width="41px" height="74px" viewBox="729 62 41 74" version="1.1" xmlns="http://www.w3.org/2000/svg" xmlns:xlink="http://www.w3.org/1999/xlink">
    <!-- Generator: Sketch 3.8.3 (29802) - http://www.bohemiancoding.com/sketch -->
    <desc>Created with Sketch.</desc>
    <defs></defs>
    <g id="Group-239" stroke="none" stroke-width="1" fill="none" fill-rule="evenodd" transform="translate(729.000000, 62.000000)">
        <path d="M28.809203,52.977904 C27.668203,52.977904 26.724203,52.073904 26.683203,50.924904 C26.673203,50.640904 26.482203,43.926904 30.447203,39.818904 C32.424203,37.769904 35.024203,36.731904 38.175203,36.731904 C39.351203,36.731904 40.303203,37.684904 40.303203,38.859904 C40.303203,40.034904 39.351203,40.987904 38.175203,40.987904 C36.196203,40.987904 34.670203,41.572904 33.510203,42.774904 C30.830203,45.551904 30.935203,50.722904 30.937203,50.773904 C30.979203,51.948904 30.061203,52.934904 28.886203,52.976904 C28.860203,52.977904 28.834203,52.977904 28.809203,52.977904" id="Fill-232" fill="#FFFFFF"></path>
        <path d="M12.409301,52.977904 C12.384301,52.977904 12.358301,52.977904 12.332301,52.976904 C11.159301,52.934904 10.242301,51.951904 10.281301,50.778904 C10.283301,50.710904 10.402301,45.551904 7.698301,42.763904 C6.538301,41.568904 5.016301,40.987904 3.043301,40.987904 C1.976301,40.987904 1.073301,40.197904 0.933301,39.139904 C0.793301,38.081904 1.458301,37.083904 2.488301,36.804904 L37.620301,27.318904 C38.754301,27.012904 39.923301,27.683904 40.230301,28.818904 C40.536301,29.952904 39.865301,31.121904 38.730301,31.427904 L10.079301,39.164904 C10.317301,39.369904 10.548301,39.587904 10.771301,39.818904 C14.736301,43.926904 14.545301,50.640904 14.535301,50.924904 C14.494301,52.073904 13.550301,52.977904 12.409301,52.977904" id="Fill-234" fill="#FFFFFF"></path>
        <path d="M3.042098,40.988906 C2.104098,40.988906 1.245098,40.363906 0.988098,39.414906 C0.682098,38.279906 1.353098,37.111906 2.488098,36.804906 L37.620098,27.318906 C38.755098,27.012906 39.923098,27.683906 40.230098,28.818906 C40.536098,29.952906 39.865098,31.121906 38.730098,31.427906 L3.598098,40.914906 C3.412098,40.964906 3.226098,40.988906 3.042098,40.988906" id="Fill-235" fill="#FFFFFF"></path>
        <path d="M3.042098,31.502395 C2.104098,31.502395 1.245098,30.877395 0.988098,29.928395 C0.682098,28.793395 1.353098,27.625395 2.488098,27.318395 L37.620098,17.832395 C38.755098,17.526395 39.923098,18.197395 40.230098,19.332395 C40.536098,20.466395 39.865098,21.635395 38.730098,21.941395 L3.598098,31.428395 C3.412098,31.478395 3.226098,31.502395 3.042098,31.502395" id="Fill-236" fill="#FFFFFF"></path>
        <path d="M3.042098,22.015792 C2.104098,22.015792 1.245098,21.390792 0.988098,20.441792 C0.682098,19.306792 1.353098,18.138792 2.488098,17.831792 L37.620098,8.345792 C38.755098,8.039792 39.923098,8.710792 40.230098,9.845792 C40.536098,10.979792 39.865098,12.148792 38.730098,12.454792 L3.598098,21.941792 C3.412098,21.991792 3.226098,22.015792 3.042098,22.015792" id="Fill-237" fill="#FFFFFF"></path>
        <path d="M9.852797,10.6902 C8.914797,10.6902 8.055797,10.0652 7.799797,9.1162 C7.492797,7.9812 8.163797,6.8132 9.298797,6.5062 L30.809797,0.6982 C31.944797,0.3922 33.112797,1.0632 33.419797,2.1982 C33.725797,3.3322 33.054797,4.5012 31.919797,4.8072 L10.408797,10.6162 C10.222797,10.6662 10.036797,10.6902 9.852797,10.6902" id="Fill-238" fill="#FFFFFF"></path>
        <path d="M15.539368,73.952087 L25.679368,73.952087 C27.867368,73.952087 30.034368,72.233087 30.805368,69.805087 L10.413368,69.805087 C11.183368,72.233087 13.351368,73.952087 15.539368,73.952087" id="Fill-227" fill="#FFFFFF"></path>
        <polyline id="Fill-229" fill="#FFFFFF" points="10.017517 68.102478 31.201517 68.102478 31.849517 65.052478 9.368517 65.052478"></polyline>
        <polyline id="Fill-230" fill="#FFFFFF" points="9.007324 63.349487 32.211324 63.349487 32.859324 60.299487 8.358324 60.299487"></polyline>
        <polyline id="Fill-231" fill="#FFFFFF" points="6.377624 55.546081 6.377624 58.596081 34.840624 58.596081 34.840624 55.546081 20.609624 55.546081"></polyline>
    </g>
</svg>
